<svg width="22" height="22" viewBox="0 0 22 22" fill="none" xmlns="http://www.w3.org/2000/svg">
<path d="M2 3.8C2 2.2536 3.2536 1 4.8 1H19.2C20.7464 1 22 2.2536 22 3.8V18.2C22 19.7464 20.7464 21 19.2 21H4.8C3.2536 21 2 19.7464 2 18.2V3.8Z" fill="#0000FF"/>
<path d="M9.2 6.4C9.2 7.39411 8.39411 8.2 7.4 8.2C6.40589 8.2 5.6 7.39411 5.6 6.4C5.6 5.40589 6.40589 4.6 7.4 4.6C8.39411 4.6 9.2 5.40589 9.2 6.4Z" fill="white"/>
<path d="M6 9.4C6 9.17909 6.17909 9 6.4 9H8.4C8.62091 9 8.8 9.17909 8.8 9.4V17C8.8 17.2209 8.62091 17.4 8.4 17.4H6.4C6.17909 17.4 6 17.2209 6 17V9.4Z" fill="white"/>
<path d="M10.4 9L12.2 9.00001C12.4209 9.00001 12.6 9.1791 12.6 9.40001V9.80001C13.4 8.80001 14.8667 8.73333 15.6 8.79999C17.8861 9.00781 18.2667 11.3333 18.2 12.6L18.2 17C18.2 17.2209 18.0209 17.4 17.8 17.4L16 17.4C15.7791 17.4 15.6 17.2209 15.6 17V12.6C15.5333 12.0667 15.16 11 14.2 11C13.24 11 12.6667 12.2 12.6 12.6V17C12.6 17.2209 12.4209 17.4 12.2 17.4L10.4 17.4C10.1791 17.4 10 17.2209 10 17V9.4C10 9.17909 10.1791 9 10.4 9Z" fill="white"/>
</svg>
