<svg width="180" height="179" viewBox="0 0 180 179" fill="none" xmlns="http://www.w3.org/2000/svg">
<g style="mix-blend-mode:hard-light">
<ellipse cx="90" cy="89.3308" rx="88" ry="87.3308" stroke="#0000FF" stroke-width="3" stroke-dasharray="15 15"/>
</g>
<g style="mix-blend-mode:hard-light">
<mask id="path-2-outside-1_177_335" maskUnits="userSpaceOnUse" x="90.5257" y="18.82" width="17.9777" height="17.9777" fill="black">
<rect fill="white" x="90.5257" y="18.82" width="17.9777" height="17.9777"/>
<path d="M93.5189 26.7582C94.0287 22.9416 97.1164 20.6271 100.832 21.1234C104.522 21.6164 106.894 24.6603 106.384 28.4768C105.874 32.2934 102.787 34.608 99.0963 34.115C95.3809 33.6186 93.009 30.5748 93.5189 26.7582ZM95.9201 27.0789C95.5756 29.657 96.9788 31.6711 99.38 31.9919C101.756 32.3093 103.664 30.7375 104.008 28.1594C104.353 25.5814 102.924 23.5639 100.548 23.2465C98.1471 22.9258 96.2645 24.5009 95.9201 27.0789Z"/>
</mask>
<path d="M93.5189 26.7582C94.0287 22.9416 97.1164 20.6271 100.832 21.1234C104.522 21.6164 106.894 24.6603 106.384 28.4768C105.874 32.2934 102.787 34.608 99.0963 34.115C95.3809 33.6186 93.009 30.5748 93.5189 26.7582ZM95.9201 27.0789C95.5756 29.657 96.9788 31.6711 99.38 31.9919C101.756 32.3093 103.664 30.7375 104.008 28.1594C104.353 25.5814 102.924 23.5639 100.548 23.2465C98.1471 22.9258 96.2645 24.5009 95.9201 27.0789Z" fill="#0000FF"/>
<path d="M93.5189 26.7582L94.5101 26.8906C94.9468 23.6214 97.5314 21.6914 100.699 22.1146L100.832 21.1234L100.964 20.1322C96.7014 19.5627 93.1107 22.2617 92.5277 26.6258L93.5189 26.7582ZM100.832 21.1234L100.699 22.1146C103.84 22.5341 105.83 25.0727 105.393 28.3444L106.384 28.4768L107.375 28.6093C107.958 24.2478 105.205 20.6987 100.964 20.1322L100.832 21.1234ZM106.384 28.4768L105.393 28.3444C104.956 31.6162 102.369 33.5433 99.2288 33.1238L99.0963 34.115L98.9639 35.1062C103.204 35.6726 106.793 32.9707 107.375 28.6093L106.384 28.4768ZM99.0963 34.115L99.2288 33.1238C96.0607 32.7006 94.0733 30.1598 94.5101 26.8906L93.5189 26.7582L92.5277 26.6258C91.9447 30.9898 94.701 34.5367 98.9639 35.1062L99.0963 34.115ZM95.9201 27.0789L94.9289 26.9465C94.7285 28.4463 95.029 29.8554 95.802 30.9565C96.5801 32.0648 97.7875 32.788 99.2476 32.983L99.38 31.9919L99.5124 31.0007C98.5713 30.8749 97.8765 30.4307 97.4389 29.8073C96.9961 29.1766 96.7672 28.2897 96.9112 27.2114L95.9201 27.0789ZM99.38 31.9919L99.2476 32.983C100.697 33.1767 102.051 32.7942 103.093 31.9322C104.13 31.0749 104.799 29.7956 104.999 28.2919L104.008 28.1594L103.017 28.027C102.873 29.1014 102.416 29.897 101.819 30.3908C101.227 30.8798 100.439 31.1244 99.5124 31.0007L99.38 31.9919ZM104.008 28.1594L104.999 28.2919C105.2 26.7881 104.891 25.3782 104.116 24.2788C103.336 23.1734 102.13 22.449 100.681 22.2553L100.548 23.2465L100.416 24.2377C101.342 24.3615 102.039 24.8045 102.481 25.4316C102.928 26.0648 103.161 26.9527 103.017 28.027L104.008 28.1594ZM100.548 23.2465L100.681 22.2553C99.2206 22.0603 97.8657 22.4412 96.824 23.3064C95.789 24.1659 95.1292 25.4468 94.9289 26.9465L95.9201 27.0789L96.9112 27.2114C97.0553 26.133 97.509 25.3373 98.1018 24.8449C98.6877 24.3583 99.4748 24.112 100.416 24.2377L100.548 23.2465Z" fill="#0000FF" mask="url(#path-2-outside-1_177_335)"/>
<mask id="path-4-outside-2_177_335" maskUnits="userSpaceOnUse" x="104.364" y="22.0974" width="22.9724" height="25.6017" fill="black">
<rect fill="white" x="104.364" y="22.0974" width="22.9724" height="25.6017"/>
<path d="M106.516 40.7844L113.619 24.1868L115.612 25.0396L114.893 27.1729C116.339 25.9333 118.238 25.775 120.066 26.5576C123.348 27.9624 124.334 31.2968 122.829 34.8133C121.334 38.3063 118.288 40.1091 114.889 38.6542C113.06 37.8716 111.867 36.4458 111.719 34.7181L108.719 41.7276L106.516 40.7844ZM113.388 30.8835C112.385 33.2278 113.022 35.4977 115.273 36.4609C117.523 37.4241 119.582 36.3082 120.585 33.9639C121.599 31.5961 120.985 29.3363 118.734 28.3731C116.484 27.4098 114.412 28.4923 113.388 30.8835Z"/>
</mask>
<path d="M106.516 40.7844L113.619 24.1868L115.612 25.0396L114.893 27.1729C116.339 25.9333 118.238 25.775 120.066 26.5576C123.348 27.9624 124.334 31.2968 122.829 34.8133C121.334 38.3063 118.288 40.1091 114.889 38.6542C113.06 37.8716 111.867 36.4458 111.719 34.7181L108.719 41.7276L106.516 40.7844ZM113.388 30.8835C112.385 33.2278 113.022 35.4977 115.273 36.4609C117.523 37.4241 119.582 36.3082 120.585 33.9639C121.599 31.5961 120.985 29.3363 118.734 28.3731C116.484 27.4098 114.412 28.4923 113.388 30.8835Z" fill="#0000FF"/>
<path d="M106.516 40.7844L105.596 40.3909L105.203 41.3103L106.122 41.7037L106.516 40.7844ZM113.619 24.1868L114.013 23.2674L113.094 22.874L112.7 23.7933L113.619 24.1868ZM115.612 25.0396L116.56 25.359L116.855 24.4837L116.006 24.1203L115.612 25.0396ZM114.893 27.1729L113.946 26.8535L112.785 30.2974L115.544 27.932L114.893 27.1729ZM111.719 34.7181L112.716 34.6327L110.8 34.3246L111.719 34.7181ZM108.719 41.7276L108.326 42.6469L109.245 43.0404L109.639 42.1211L108.719 41.7276ZM106.516 40.7844L107.435 41.1779L114.539 24.5802L113.619 24.1868L112.7 23.7933L105.596 40.3909L106.516 40.7844ZM113.619 24.1868L113.226 25.1061L115.219 25.959L115.612 25.0396L116.006 24.1203L114.013 23.2674L113.619 24.1868ZM115.612 25.0396L114.664 24.7203L113.946 26.8535L114.893 27.1729L115.841 27.4922L116.56 25.359L115.612 25.0396ZM114.893 27.1729L115.544 27.932C116.651 26.983 118.13 26.8166 119.673 27.477L120.066 26.5576L120.46 25.6383C118.345 24.7334 116.027 24.8835 114.242 26.4137L114.893 27.1729ZM120.066 26.5576L119.673 27.477C121.067 28.074 121.918 29.0469 122.291 30.2013C122.67 31.3737 122.588 32.8344 121.91 34.4198L122.829 34.8133L123.748 35.2067C124.575 33.2757 124.752 31.3109 124.194 29.5858C123.63 27.8427 122.347 26.4461 120.46 25.6383L120.066 26.5576ZM122.829 34.8133L121.91 34.4198C121.231 36.0063 120.235 37.1248 119.116 37.6997C118.022 38.2618 116.723 38.3516 115.282 37.7349L114.889 38.6542L114.495 39.5736C116.454 40.4118 118.378 40.3275 120.03 39.4787C121.657 38.6427 122.932 37.1132 123.748 35.2067L122.829 34.8133ZM114.889 38.6542L115.282 37.7349C113.708 37.0611 112.825 35.9084 112.716 34.6327L111.719 34.7181L110.723 34.8036C110.91 36.9832 112.412 38.6821 114.495 39.5736L114.889 38.6542ZM111.719 34.7181L110.8 34.3246L107.8 41.3341L108.719 41.7276L109.639 42.1211L112.639 35.1116L111.719 34.7181ZM108.719 41.7276L109.113 40.8082L106.909 39.8651L106.516 40.7844L106.122 41.7037L108.326 42.6469L108.719 41.7276ZM113.388 30.8835L112.469 30.49C111.893 31.8345 111.754 33.2393 112.158 34.496C112.568 35.772 113.507 36.7929 114.879 37.3802L115.273 36.4609L115.666 35.5416C114.788 35.1656 114.283 34.57 114.062 33.8842C113.836 33.179 113.88 32.2768 114.308 31.277L113.388 30.8835ZM115.273 36.4609L114.879 37.3802C116.252 37.9679 117.635 37.9397 118.837 37.3506C120.019 36.7713 120.931 35.6979 121.505 34.3573L120.585 33.9639L119.666 33.5704C119.236 34.5741 118.617 35.2309 117.957 35.5548C117.316 35.8689 116.544 35.9172 115.666 35.5416L115.273 36.4609ZM120.585 33.9639L121.505 34.3573C122.083 33.0071 122.233 31.6009 121.838 30.3422C121.436 29.0618 120.501 28.0415 119.128 27.4537L118.734 28.3731L118.341 29.2924C119.218 29.6679 119.715 30.2591 119.93 30.9413C120.151 31.6453 120.101 32.5529 119.666 33.5704L120.585 33.9639ZM118.734 28.3731L119.128 27.4537C117.759 26.8681 116.375 26.8845 115.165 27.4704C113.974 28.0473 113.053 29.126 112.469 30.49L113.388 30.8835L114.308 31.277C114.747 30.2499 115.374 29.5917 116.037 29.2704C116.682 28.9581 117.459 28.9148 118.341 29.2924L118.734 28.3731Z" fill="#0000FF" mask="url(#path-4-outside-2_177_335)"/>
<mask id="path-6-outside-3_177_335" maskUnits="userSpaceOnUse" x="119.675" y="29.8214" width="22.4675" height="22.4675" fill="black">
<rect fill="white" x="119.675" y="29.8214" width="22.4675" height="22.4675"/>
<path d="M127.1 46.0826C124.214 43.8126 123.869 40.1675 126.265 37.1208C128.677 34.0542 132.292 33.4587 135.138 35.6971C137.924 37.8884 138.235 41.2471 135.949 44.1534L135.397 44.8549L127.805 38.9161C126.322 41.091 126.506 43.0847 128.37 44.5508C129.833 45.7016 131.268 45.8569 132.471 44.9867L134.235 46.3739C132.099 48.1002 129.525 47.9901 127.1 46.0826ZM133.893 37.2806C132.249 35.9879 130.435 36.1503 128.838 37.6849L134.491 42.1304C135.768 40.5069 135.557 38.589 133.893 37.2806Z"/>
</mask>
<path d="M127.1 46.0826C124.214 43.8126 123.869 40.1675 126.265 37.1208C128.677 34.0542 132.292 33.4587 135.138 35.6971C137.924 37.8884 138.235 41.2471 135.949 44.1534L135.397 44.8549L127.805 38.9161C126.322 41.091 126.506 43.0847 128.37 44.5508C129.833 45.7016 131.268 45.8569 132.471 44.9867L134.235 46.3739C132.099 48.1002 129.525 47.9901 127.1 46.0826ZM133.893 37.2806C132.249 35.9879 130.435 36.1503 128.838 37.6849L134.491 42.1304C135.768 40.5069 135.557 38.589 133.893 37.2806Z" fill="#0000FF"/>
<path d="M135.397 44.8549L134.781 45.6426L135.567 46.257L136.183 45.4731L135.397 44.8549ZM127.805 38.9161L128.421 38.1285L127.581 37.4708L126.979 38.3527L127.805 38.9161ZM132.471 44.9867L133.09 44.2007L132.497 43.7344L131.885 44.1764L132.471 44.9867ZM134.235 46.3739L134.864 47.1517L135.839 46.3634L134.853 45.5879L134.235 46.3739ZM128.838 37.6849L128.145 36.964L127.317 37.7605L128.22 38.4709L128.838 37.6849ZM134.491 42.1304L133.873 42.9164L134.659 43.5346L135.277 42.7486L134.491 42.1304ZM127.1 46.0826L127.718 45.2966C126.472 44.3165 125.817 43.0802 125.697 41.7998C125.577 40.5139 125.988 39.09 127.051 37.739L126.265 37.1208L125.479 36.5026C124.145 38.1983 123.531 40.1203 123.706 41.9861C123.881 43.8575 124.842 45.5788 126.482 46.8687L127.1 46.0826ZM126.265 37.1208L127.051 37.739C128.126 36.3718 129.422 35.6132 130.698 35.4067C131.966 35.2018 133.303 35.5256 134.52 36.4832L135.138 35.6971L135.757 34.9111C134.128 33.6302 132.234 33.1326 130.379 33.4324C128.534 33.7307 126.816 34.8032 125.479 36.5026L126.265 37.1208ZM135.138 35.6971L134.52 36.4832C135.725 37.4311 136.339 38.5799 136.45 39.7516C136.562 40.9298 136.176 42.2472 135.163 43.5352L135.949 44.1534L136.735 44.7716C138.008 43.1533 138.61 41.3381 138.441 39.5626C138.272 37.7806 137.337 36.1544 135.757 34.9111L135.138 35.6971ZM135.949 44.1534L135.163 43.5352L134.611 44.2367L135.397 44.8549L136.183 45.4731L136.735 44.7716L135.949 44.1534ZM135.397 44.8549L136.014 44.0673L128.421 38.1285L127.805 38.9161L127.189 39.7038L134.781 45.6426L135.397 44.8549ZM127.805 38.9161L126.979 38.3527C126.152 39.5653 125.714 40.8389 125.837 42.0969C125.962 43.3757 126.652 44.4721 127.751 45.3368L128.37 44.5508L128.988 43.7648C128.223 43.1634 127.889 42.5299 127.827 41.9016C127.764 41.2525 127.975 40.4418 128.631 39.4796L127.805 38.9161ZM128.37 44.5508L127.751 45.3368C128.585 45.9924 129.482 46.4217 130.412 46.521C131.361 46.6224 132.265 46.3696 133.057 45.7971L132.471 44.9867L131.885 44.1764C131.474 44.474 131.059 44.5787 130.624 44.5323C130.169 44.4837 129.617 44.2599 128.988 43.7648L128.37 44.5508ZM132.471 44.9867L131.853 45.7727L133.617 47.16L134.235 46.3739L134.853 45.5879L133.09 44.2007L132.471 44.9867ZM134.235 46.3739L133.607 45.5961C132.708 46.3223 131.764 46.6309 130.817 46.5918C129.859 46.5522 128.805 46.1515 127.718 45.2966L127.1 46.0826L126.482 46.8687C127.82 47.9213 129.266 48.5294 130.735 48.5901C132.215 48.6513 133.626 48.1518 134.864 47.1517L134.235 46.3739ZM133.893 37.2806L134.511 36.4946C133.527 35.7204 132.418 35.3308 131.266 35.4259C130.123 35.5202 129.065 36.0798 128.145 36.964L128.838 37.6849L129.531 38.4058C130.208 37.7555 130.855 37.4666 131.43 37.4192C131.995 37.3726 132.615 37.5481 133.275 38.0666L133.893 37.2806ZM128.838 37.6849L128.22 38.4709L133.873 42.9164L134.491 42.1304L135.109 41.3444L129.457 36.8989L128.838 37.6849ZM134.491 42.1304L135.277 42.7486C136.053 41.7622 136.425 40.6178 136.287 39.4686C136.15 38.3188 135.517 37.2857 134.511 36.4946L133.893 37.2806L133.275 38.0666C133.933 38.5839 134.237 39.1639 134.302 39.706C134.366 40.2487 134.206 40.875 133.705 41.5122L134.491 42.1304Z" fill="#0000FF" mask="url(#path-6-outside-3_177_335)"/>
<mask id="path-8-outside-4_177_335" maskUnits="userSpaceOnUse" x="132.244" y="41.9686" width="21.0186" height="21.0186" fill="black">
<rect fill="white" x="132.244" y="41.9686" width="21.0186" height="21.0186"/>
<path d="M135.54 53.7284L134.089 51.8199L144.017 44.2752L145.329 46.0009L143.96 47.3611C145.576 47.1265 147.202 47.8761 148.267 49.277C150.257 51.896 149.563 54.3128 147.026 56.2414L140.955 60.8546L139.505 58.9462L145.149 54.6569C147.159 53.1295 147.261 51.5784 146.15 50.1166C144.793 48.33 142.727 48.2666 140.798 49.7323L135.54 53.7284Z"/>
</mask>
<path d="M135.54 53.7284L134.089 51.8199L144.017 44.2752L145.329 46.0009L143.96 47.3611C145.576 47.1265 147.202 47.8761 148.267 49.277C150.257 51.896 149.563 54.3128 147.026 56.2414L140.955 60.8546L139.505 58.9462L145.149 54.6569C147.159 53.1295 147.261 51.5784 146.15 50.1166C144.793 48.33 142.727 48.2666 140.798 49.7323L135.54 53.7284Z" fill="#0000FF"/>
<path d="M135.54 53.7284L134.743 54.3334L135.348 55.1296L136.145 54.5246L135.54 53.7284ZM134.089 51.8199L133.484 51.0237L132.688 51.6288L133.293 52.425L134.089 51.8199ZM144.017 44.2752L144.813 43.6701L144.208 42.874L143.412 43.479L144.017 44.2752ZM145.329 46.0009L146.034 46.7102L146.655 46.0929L146.125 45.3959L145.329 46.0009ZM143.96 47.3611L143.255 46.6519L141.108 48.7859L144.104 48.3507L143.96 47.3611ZM140.955 60.8546L140.159 61.4597L140.764 62.2559L141.56 61.6508L140.955 60.8546ZM139.505 58.9462L138.9 58.15L138.104 58.755L138.709 59.5512L139.505 58.9462ZM135.54 53.7284L136.336 53.1233L134.885 51.2149L134.089 51.8199L133.293 52.425L134.743 54.3334L135.54 53.7284ZM134.089 51.8199L134.694 52.6161L144.622 45.0714L144.017 44.2752L143.412 43.479L133.484 51.0237L134.089 51.8199ZM144.017 44.2752L143.221 44.8803L144.533 46.606L145.329 46.0009L146.125 45.3959L144.813 43.6701L144.017 44.2752ZM145.329 46.0009L144.624 45.2917L143.255 46.6519L143.96 47.3611L144.665 48.0704L146.034 46.7102L145.329 46.0009ZM143.96 47.3611L144.104 48.3507C145.309 48.1757 146.593 48.7278 147.471 49.882L148.267 49.277L149.063 48.6719C147.811 47.0244 145.842 46.0773 143.817 46.3715L143.96 47.3611ZM148.267 49.277L147.471 49.882C148.338 51.0232 148.534 51.9942 148.365 52.8161C148.189 53.6687 147.578 54.5659 146.421 55.4452L147.026 56.2414L147.631 57.0376C149.012 55.9882 150.016 54.7128 150.324 53.2201C150.638 51.6967 150.186 50.1498 149.063 48.6719L148.267 49.277ZM147.026 56.2414L146.421 55.4452L140.35 60.0584L140.955 60.8546L141.56 61.6508L147.631 57.0376L147.026 56.2414ZM140.955 60.8546L141.751 60.2496L140.301 58.3411L139.505 58.9462L138.709 59.5512L140.159 61.4597L140.955 60.8546ZM139.505 58.9462L140.11 59.7424L145.754 55.4531L145.149 54.6569L144.544 53.8608L138.9 58.15L139.505 58.9462ZM145.149 54.6569L145.754 55.4531C146.868 54.6065 147.605 53.6403 147.804 52.5405C148.007 51.4195 147.612 50.3876 146.947 49.5116L146.15 50.1166L145.354 50.7217C145.799 51.3075 145.909 51.782 145.836 52.1838C145.759 52.6069 145.44 53.18 144.544 53.8608L145.149 54.6569ZM146.15 50.1166L146.947 49.5116C146.113 48.4145 145 47.7822 143.749 47.7066C142.522 47.6326 141.293 48.1003 140.193 48.9361L140.798 49.7323L141.403 50.5285C142.232 49.8986 143.001 49.6651 143.628 49.703C144.231 49.7394 144.83 50.0321 145.354 50.7217L146.15 50.1166ZM140.798 49.7323L140.193 48.9361L134.935 52.9322L135.54 53.7284L136.145 54.5246L141.403 50.5285L140.798 49.7323Z" fill="#0000FF" mask="url(#path-8-outside-4_177_335)"/>
<mask id="path-10-outside-5_177_335" maskUnits="userSpaceOnUse" x="143.74" y="62.5801" width="21.1834" height="15.4786" fill="black">
<rect fill="white" x="143.74" y="62.5801" width="21.1834" height="15.4786"/>
<path d="M146.66 74.1875L145.905 71.9127L155.827 68.6175L155.055 66.2943L156.967 65.6594L157.739 67.9826L161.441 66.753L162.197 69.0278L158.494 70.2574L159.266 72.5807L157.354 73.2156L156.582 70.8924L146.66 74.1875Z"/>
</mask>
<path d="M146.66 74.1875L145.905 71.9127L155.827 68.6175L155.055 66.2943L156.967 65.6594L157.739 67.9826L161.441 66.753L162.197 69.0278L158.494 70.2574L159.266 72.5807L157.354 73.2156L156.582 70.8924L146.66 74.1875Z" fill="#0000FF"/>
<path d="M146.66 74.1875L145.711 74.5027L146.026 75.4517L146.975 75.1365L146.66 74.1875ZM145.905 71.9127L145.59 70.9636L144.64 71.2788L144.956 72.2278L145.905 71.9127ZM155.827 68.6175L156.142 69.5666L157.091 69.2514L156.776 68.3023L155.827 68.6175ZM155.055 66.2943L154.74 65.3452L153.791 65.6604L154.106 66.6095L155.055 66.2943ZM156.967 65.6594L157.916 65.3442L157.601 64.3952L156.652 64.7103L156.967 65.6594ZM157.739 67.9826L156.79 68.2978L157.105 69.2468L158.054 68.9316L157.739 67.9826ZM161.441 66.753L162.39 66.4378L162.075 65.4887L161.126 65.8039L161.441 66.753ZM162.197 69.0278L162.512 69.9768L163.461 69.6616L163.146 68.7126L162.197 69.0278ZM158.494 70.2574L158.179 69.3084L157.23 69.6236L157.545 70.5726L158.494 70.2574ZM159.266 72.5807L159.581 73.5297L160.53 73.2145L160.215 72.2655L159.266 72.5807ZM157.354 73.2156L156.405 73.5308L156.72 74.4798L157.669 74.1646L157.354 73.2156ZM156.582 70.8924L157.531 70.5772L157.216 69.6281L156.267 69.9433L156.582 70.8924ZM146.66 74.1875L147.609 73.8723L146.854 71.5975L145.905 71.9127L144.956 72.2278L145.711 74.5027L146.66 74.1875ZM145.905 71.9127L146.22 72.8617L156.142 69.5666L155.827 68.6175L155.512 67.6685L145.59 70.9636L145.905 71.9127ZM155.827 68.6175L156.776 68.3023L156.004 65.9791L155.055 66.2943L154.106 66.6095L154.878 68.9327L155.827 68.6175ZM155.055 66.2943L155.37 67.2433L157.282 66.6084L156.967 65.6594L156.652 64.7103L154.74 65.3452L155.055 66.2943ZM156.967 65.6594L156.018 65.9745L156.79 68.2978L157.739 67.9826L158.688 67.6674L157.916 65.3442L156.967 65.6594ZM157.739 67.9826L158.054 68.9316L161.756 67.702L161.441 66.753L161.126 65.8039L157.423 67.0336L157.739 67.9826ZM161.441 66.753L160.492 67.0681L161.248 69.343L162.197 69.0278L163.146 68.7126L162.39 66.4378L161.441 66.753ZM162.197 69.0278L161.882 68.0788L158.179 69.3084L158.494 70.2574L158.809 71.2065L162.512 69.9768L162.197 69.0278ZM158.494 70.2574L157.545 70.5726L158.317 72.8958L159.266 72.5807L160.215 72.2655L159.443 69.9423L158.494 70.2574ZM159.266 72.5807L158.951 71.6316L157.039 72.2666L157.354 73.2156L157.669 74.1646L159.581 73.5297L159.266 72.5807ZM157.354 73.2156L158.303 72.9004L157.531 70.5772L156.582 70.8924L155.633 71.2075L156.405 73.5308L157.354 73.2156ZM156.582 70.8924L156.267 69.9433L146.345 73.2385L146.66 74.1875L146.975 75.1365L156.897 71.8414L156.582 70.8924Z" fill="#0000FF" mask="url(#path-10-outside-5_177_335)"/>
<mask id="path-12-outside-6_177_335" maskUnits="userSpaceOnUse" x="145.858" y="74.6358" width="17.7307" height="17.7307" fill="black">
<rect fill="white" x="145.858" y="74.6358" width="17.7307" height="17.7307"/>
<path d="M154.271 77.431C158.096 76.989 161.098 79.4145 161.528 83.1383C161.955 86.8367 159.586 89.8827 155.761 90.3247C151.936 90.7666 148.935 88.3411 148.508 84.6427C148.077 80.919 150.446 77.8729 154.271 77.431ZM154.549 79.8374C151.966 80.136 150.357 81.9903 150.635 84.3968C150.911 86.778 152.902 88.2421 155.486 87.9435C158.07 87.645 159.675 85.7653 159.4 83.3841C159.122 80.9776 157.133 79.5389 154.549 79.8374Z"/>
</mask>
<path d="M154.271 77.431C158.096 76.989 161.098 79.4145 161.528 83.1383C161.955 86.8367 159.586 89.8827 155.761 90.3247C151.936 90.7666 148.935 88.3411 148.508 84.6427C148.077 80.919 150.446 77.8729 154.271 77.431ZM154.549 79.8374C151.966 80.136 150.357 81.9903 150.635 84.3968C150.911 86.778 152.902 88.2421 155.486 87.9435C158.07 87.645 159.675 85.7653 159.4 83.3841C159.122 80.9776 157.133 79.5389 154.549 79.8374Z" fill="#0000FF"/>
<path d="M154.271 77.431L154.386 78.4243C157.663 78.0458 160.168 80.078 160.535 83.2531L161.528 83.1383L162.521 83.0235C162.028 78.7511 158.53 75.9322 154.157 76.4376L154.271 77.431ZM161.528 83.1383L160.535 83.2531C160.898 86.4002 158.925 88.9524 155.646 89.3313L155.761 90.3247L155.876 91.3181C160.247 90.813 163.012 87.2731 162.521 83.0235L161.528 83.1383ZM155.761 90.3247L155.646 89.3313C152.367 89.7101 149.865 87.6751 149.501 84.5279L148.508 84.6427L147.514 84.7575C148.005 89.0071 151.505 91.8231 155.876 91.3181L155.761 90.3247ZM148.508 84.6427L149.501 84.5279C149.134 81.3528 151.11 78.8029 154.386 78.4243L154.271 77.431L154.157 76.4376C149.783 76.9429 147.021 80.4851 147.514 84.7575L148.508 84.6427ZM154.549 79.8374L154.435 78.844C152.932 79.0177 151.639 79.6547 150.761 80.6742C149.878 81.7004 149.473 83.0483 149.642 84.5116L150.635 84.3968L151.629 84.282C151.52 83.3389 151.78 82.5563 152.277 81.9791C152.78 81.3952 153.584 80.9557 154.664 80.8308L154.549 79.8374ZM150.635 84.3968L149.642 84.5116C149.81 85.9644 150.513 87.1826 151.604 87.9819C152.69 88.7767 154.094 89.111 155.601 88.9369L155.486 87.9435L155.371 86.9501C154.295 87.0745 153.411 86.8261 152.786 86.3683C152.167 85.9148 151.736 85.2104 151.629 84.282L150.635 84.3968ZM155.486 87.9435L155.601 88.9369C157.108 88.7628 158.399 88.1171 159.274 87.0956C160.155 86.0685 160.561 84.7222 160.394 83.2694L159.4 83.3841L158.407 83.4989C158.514 84.4272 158.255 85.2113 157.756 85.794C157.252 86.3823 156.448 86.8257 155.371 86.9501L155.486 87.9435ZM159.4 83.3841L160.394 83.2694C160.224 81.806 159.523 80.586 158.429 79.7883C157.341 78.9958 155.938 78.6704 154.435 78.844L154.549 79.8374L154.664 80.8308C155.745 80.706 156.628 80.9506 157.25 81.4045C157.866 81.8532 158.298 82.5557 158.407 83.4989L159.4 83.3841Z" fill="#0000FF" mask="url(#path-12-outside-6_177_335)"/>
<mask id="path-14-outside-7_177_335" maskUnits="userSpaceOnUse" x="141.802" y="98.0081" width="21.3783" height="26.5117" fill="black">
<rect fill="white" x="141.802" y="98.0081" width="21.3783" height="26.5117"/>
<path d="M147.884 104.414L161.004 104.391L160.239 106.744L153.44 106.704C152.481 106.687 151.505 106.638 150.391 106.517C151.37 107.05 152.262 107.689 152.951 108.208L158.464 112.2L157.707 114.528L150.909 114.489C150.264 114.493 148.755 114.432 147.843 114.35C148.726 114.851 149.479 115.338 150.412 116.016L155.924 120.008L155.151 122.385L144.611 114.478L145.313 112.32L152.336 112.325C153.651 112.324 154.651 112.381 155.345 112.472C154.803 112.162 154.098 111.691 152.809 110.789L147.15 106.67L147.884 104.414Z"/>
</mask>
<path d="M147.884 104.414L161.004 104.391L160.239 106.744L153.44 106.704C152.481 106.687 151.505 106.638 150.391 106.517C151.37 107.05 152.262 107.689 152.951 108.208L158.464 112.2L157.707 114.528L150.909 114.489C150.264 114.493 148.755 114.432 147.843 114.35C148.726 114.851 149.479 115.338 150.412 116.016L155.924 120.008L155.151 122.385L144.611 114.478L145.313 112.32L152.336 112.325C153.651 112.324 154.651 112.381 155.345 112.472C154.803 112.162 154.098 111.691 152.809 110.789L147.15 106.67L147.884 104.414Z" fill="#0000FF"/>
<path d="M147.884 104.414L147.882 103.414L147.157 103.416L146.933 104.105L147.884 104.414ZM161.004 104.391L161.955 104.701L162.381 103.389L161.002 103.391L161.004 104.391ZM160.239 106.744L160.233 107.744L160.964 107.748L161.19 107.053L160.239 106.744ZM153.44 106.704L153.423 107.704L153.435 107.704L153.44 106.704ZM150.391 106.517L150.499 105.523L149.913 107.395L150.391 106.517ZM152.951 108.208L152.35 109.007L152.357 109.012L152.365 109.018L152.951 108.208ZM158.464 112.2L159.415 112.509L159.64 111.817L159.051 111.39L158.464 112.2ZM157.707 114.528L157.701 115.528L158.432 115.532L158.658 114.837L157.707 114.528ZM150.909 114.489L150.914 113.489L150.901 113.489L150.909 114.489ZM147.843 114.35L147.933 113.354L147.349 115.219L147.843 114.35ZM150.412 116.016L149.823 116.825L149.825 116.826L150.412 116.016ZM155.924 120.008L156.875 120.317L157.101 119.625L156.511 119.198L155.924 120.008ZM155.151 122.385L154.551 123.185L155.67 124.024L156.102 122.694L155.151 122.385ZM144.611 114.478L143.66 114.169L143.438 114.849L144.011 115.278L144.611 114.478ZM145.313 112.32L145.313 111.32L144.586 111.319L144.362 112.011L145.313 112.32ZM152.336 112.325L152.336 113.325L152.338 113.325L152.336 112.325ZM155.345 112.472L155.214 113.464L155.842 111.605L155.345 112.472ZM152.809 110.789L152.22 111.598L152.228 111.603L152.236 111.609L152.809 110.789ZM147.15 106.67L146.199 106.36L145.975 107.051L146.562 107.478L147.15 106.67ZM147.884 104.414L147.885 105.414L161.005 105.391L161.004 104.391L161.002 103.391L147.882 103.414L147.884 104.414ZM161.004 104.391L160.053 104.082L159.288 106.434L160.239 106.744L161.19 107.053L161.955 104.701L161.004 104.391ZM160.239 106.744L160.244 105.744L153.446 105.704L153.44 106.704L153.435 107.704L160.233 107.744L160.239 106.744ZM153.44 106.704L153.458 105.705C152.523 105.688 151.577 105.64 150.499 105.523L150.391 106.517L150.283 107.511C151.432 107.636 152.439 107.687 153.423 107.704L153.44 106.704ZM150.391 106.517L149.913 107.395C150.828 107.893 151.673 108.497 152.35 109.007L152.951 108.208L153.553 107.409C152.851 106.88 151.913 106.207 150.869 105.639L150.391 106.517ZM152.951 108.208L152.365 109.018L157.878 113.01L158.464 112.2L159.051 111.39L153.538 107.398L152.951 108.208ZM158.464 112.2L157.513 111.89L156.756 114.218L157.707 114.528L158.658 114.837L159.415 112.509L158.464 112.2ZM157.707 114.528L157.713 113.528L150.914 113.489L150.909 114.489L150.903 115.489L157.701 115.528L157.707 114.528ZM150.909 114.489L150.901 113.489C150.292 113.493 148.816 113.433 147.933 113.354L147.843 114.35L147.754 115.346C148.694 115.43 150.235 115.494 150.916 115.489L150.909 114.489ZM147.843 114.35L147.349 115.219C148.197 115.701 148.919 116.167 149.823 116.825L150.412 116.016L151 115.208C150.04 114.509 149.255 114.002 148.337 113.48L147.843 114.35ZM150.412 116.016L149.825 116.826L155.338 120.818L155.924 120.008L156.511 119.198L150.998 115.206L150.412 116.016ZM155.924 120.008L154.973 119.699L154.201 122.075L155.151 122.385L156.102 122.694L156.875 120.317L155.924 120.008ZM155.151 122.385L155.752 121.585L145.211 113.678L144.611 114.478L144.011 115.278L154.551 123.185L155.151 122.385ZM144.611 114.478L145.562 114.787L146.264 112.629L145.313 112.32L144.362 112.011L143.66 114.169L144.611 114.478ZM145.313 112.32L145.312 113.32L152.336 113.325L152.336 112.325L152.337 111.325L145.313 111.32L145.313 112.32ZM152.336 112.325L152.338 113.325C153.629 113.324 154.581 113.38 155.214 113.464L155.345 112.472L155.476 111.481C154.722 111.381 153.673 111.324 152.335 111.325L152.336 112.325ZM155.345 112.472L155.842 111.605C155.345 111.32 154.675 110.875 153.382 109.97L152.809 110.789L152.236 111.609C153.521 112.508 154.261 113.004 154.849 113.34L155.345 112.472ZM152.809 110.789L153.398 109.981L147.739 105.861L147.15 106.67L146.562 107.478L152.22 111.598L152.809 110.789ZM147.15 106.67L148.101 106.979L148.835 104.724L147.884 104.414L146.933 104.105L146.199 106.36L147.15 106.67Z" fill="#0000FF" mask="url(#path-14-outside-7_177_335)"/>
<mask id="path-16-outside-8_177_335" maskUnits="userSpaceOnUse" x="132.359" y="116.856" width="22.3155" height="22.3155" fill="black">
<rect fill="white" x="132.359" y="116.856" width="22.3155" height="22.3155"/>
<path d="M147.248 123.204C150.384 125.439 150.987 129.25 148.812 132.303C146.651 135.335 142.851 136.009 139.716 133.774C136.58 131.54 135.977 127.728 138.138 124.696C140.313 121.644 144.113 120.97 147.248 123.204ZM145.842 125.177C143.724 123.667 141.288 123.967 139.882 125.939C138.491 127.891 138.989 130.313 141.107 131.822C143.225 133.332 145.676 133.012 147.067 131.06C148.473 129.087 147.961 126.687 145.842 125.177Z"/>
</mask>
<path d="M147.248 123.204C150.384 125.439 150.987 129.25 148.812 132.303C146.651 135.335 142.851 136.009 139.716 133.774C136.58 131.54 135.977 127.728 138.138 124.696C140.313 121.644 144.113 120.97 147.248 123.204ZM145.842 125.177C143.724 123.667 141.288 123.967 139.882 125.939C138.491 127.891 138.989 130.313 141.107 131.822C143.225 133.332 145.676 133.012 147.067 131.06C148.473 129.087 147.961 126.687 145.842 125.177Z" fill="#0000FF"/>
<path d="M147.248 123.204L146.668 124.019C149.354 125.933 149.852 129.12 147.997 131.723L148.812 132.303L149.626 132.883C152.122 129.381 151.414 124.945 147.829 122.39L147.248 123.204ZM148.812 132.303L147.997 131.723C146.159 134.303 142.984 134.876 140.296 132.96L139.716 133.774L139.135 134.589C142.719 137.142 147.143 136.367 149.626 132.883L148.812 132.303ZM139.716 133.774L140.296 132.96C137.608 131.044 137.113 127.857 138.952 125.277L138.138 124.696L137.323 124.116C134.841 127.6 135.552 132.035 139.135 134.589L139.716 133.774ZM138.138 124.696L138.952 125.277C140.807 122.674 143.982 122.104 146.668 124.019L147.248 123.204L147.829 122.39C144.243 119.835 139.819 120.613 137.323 124.116L138.138 124.696ZM145.842 125.177L146.423 124.363C145.191 123.485 143.804 123.091 142.47 123.26C141.126 123.43 139.923 124.159 139.068 125.359L139.882 125.939L140.696 126.52C141.247 125.747 141.965 125.34 142.721 125.244C143.485 125.148 144.376 125.36 145.262 125.991L145.842 125.177ZM139.882 125.939L139.068 125.359C138.219 126.55 137.925 127.925 138.199 129.25C138.472 130.567 139.291 131.756 140.526 132.637L141.107 131.822L141.687 131.008C140.804 130.379 140.315 129.602 140.158 128.844C140.002 128.092 140.154 127.281 140.696 126.52L139.882 125.939ZM141.107 131.822L140.526 132.637C141.762 133.517 143.153 133.903 144.487 133.731C145.829 133.558 147.033 132.831 147.882 131.64L147.067 131.06L146.253 130.479C145.71 131.241 144.993 131.649 144.232 131.747C143.463 131.846 142.57 131.637 141.687 131.008L141.107 131.822ZM147.067 131.06L147.882 131.64C148.736 130.441 149.033 129.065 148.755 127.739C148.479 126.423 147.655 125.241 146.423 124.363L145.842 125.177L145.262 125.991C146.148 126.623 146.639 127.396 146.798 128.15C146.954 128.895 146.804 129.706 146.253 130.479L147.067 131.06Z" fill="#0000FF" mask="url(#path-16-outside-8_177_335)"/>
<mask id="path-18-outside-9_177_335" maskUnits="userSpaceOnUse" x="125.445" y="130.314" width="17.4785" height="17.8325" fill="black">
<rect fill="white" x="125.445" y="130.314" width="17.4785" height="17.8325"/>
<path d="M135.384 146.332L133.912 144.706L134.707 143.987C136.39 142.465 136.506 140.503 134.898 138.725L130.468 133.827L132.246 132.219L140.593 141.448L138.929 142.953L137.55 141.656C138.044 142.963 137.699 144.444 136.432 145.59C136.11 145.881 135.811 146.083 135.384 146.332Z"/>
</mask>
<path d="M135.384 146.332L133.912 144.706L134.707 143.987C136.39 142.465 136.506 140.503 134.898 138.725L130.468 133.827L132.246 132.219L140.593 141.448L138.929 142.953L137.55 141.656C138.044 142.963 137.699 144.444 136.432 145.59C136.11 145.881 135.811 146.083 135.384 146.332Z" fill="#0000FF"/>
<path d="M135.384 146.332L134.642 147.003L135.186 147.604L135.887 147.196L135.384 146.332ZM133.912 144.706L133.242 143.964L132.5 144.635L133.171 145.376L133.912 144.706ZM130.468 133.827L129.797 133.085L129.056 133.756L129.726 134.498L130.468 133.827ZM132.246 132.219L132.987 131.548L132.316 130.807L131.575 131.477L132.246 132.219ZM140.593 141.448L141.264 142.189L142.006 141.519L141.335 140.777L140.593 141.448ZM138.929 142.953L138.244 143.682L138.916 144.313L139.6 143.695L138.929 142.953ZM137.55 141.656L138.235 140.928L136.614 142.01L137.55 141.656ZM135.384 146.332L136.125 145.661L134.654 144.035L133.912 144.706L133.171 145.376L134.642 147.003L135.384 146.332ZM133.912 144.706L134.583 145.447L135.378 144.729L134.707 143.987L134.036 143.245L133.242 143.964L133.912 144.706ZM134.707 143.987L135.378 144.729C136.37 143.831 136.983 142.723 137.036 141.494C137.088 140.268 136.574 139.087 135.64 138.054L134.898 138.725L134.157 139.396C134.83 140.141 135.062 140.83 135.038 141.409C135.013 141.986 134.727 142.621 134.036 143.245L134.707 143.987ZM134.898 138.725L135.64 138.054L131.21 133.156L130.468 133.827L129.726 134.498L134.157 139.396L134.898 138.725ZM130.468 133.827L131.139 134.569L132.916 132.961L132.246 132.219L131.575 131.477L129.797 133.085L130.468 133.827ZM132.246 132.219L131.504 132.89L139.852 142.119L140.593 141.448L141.335 140.777L132.987 131.548L132.246 132.219ZM140.593 141.448L139.922 140.706L138.258 142.211L138.929 142.953L139.6 143.695L141.264 142.189L140.593 141.448ZM138.929 142.953L139.614 142.224L138.235 140.928L137.55 141.656L136.865 142.385L138.244 143.682L138.929 142.953ZM137.55 141.656L136.614 142.01C136.948 142.892 136.756 143.949 135.761 144.848L136.432 145.59L137.103 146.332C138.642 144.939 139.14 143.034 138.485 141.302L137.55 141.656ZM136.432 145.59L135.761 144.848C135.509 145.076 135.274 145.238 134.88 145.468L135.384 146.332L135.887 147.196C136.349 146.927 136.711 146.686 137.103 146.332L136.432 145.59Z" fill="#0000FF" mask="url(#path-18-outside-9_177_335)"/>
<mask id="path-20-outside-10_177_335" maskUnits="userSpaceOnUse" x="111.981" y="136.928" width="24.4737" height="26.224" fill="black">
<rect fill="white" x="111.981" y="136.928" width="24.4737" height="26.224"/>
<path d="M122.656 139.921L124.717 138.698L134.291 154.841L132.229 156.064L126.025 145.601L124.257 153.469L121.669 155.004L123.234 148.294L115.33 144.265L117.699 142.86L123.775 145.957L124.464 142.97L122.656 139.921Z"/>
</mask>
<path d="M122.656 139.921L124.717 138.698L134.291 154.841L132.229 156.064L126.025 145.601L124.257 153.469L121.669 155.004L123.234 148.294L115.33 144.265L117.699 142.86L123.775 145.957L124.464 142.97L122.656 139.921Z" fill="#0000FF"/>
<path d="M122.656 139.921L122.146 139.061L121.286 139.571L121.796 140.431L122.656 139.921ZM124.717 138.698L125.578 138.188L125.068 137.328L124.207 137.838L124.717 138.698ZM134.291 154.841L134.801 155.701L135.661 155.191L135.151 154.331L134.291 154.841ZM132.229 156.064L131.369 156.574L131.879 157.434L132.739 156.924L132.229 156.064ZM126.025 145.601L126.885 145.091L125.601 142.926L125.049 145.382L126.025 145.601ZM124.257 153.469L124.767 154.329L125.138 154.109L125.232 153.688L124.257 153.469ZM121.669 155.004L120.695 154.776L120.162 157.06L122.179 155.864L121.669 155.004ZM123.234 148.294L124.208 148.521L124.385 147.759L123.688 147.403L123.234 148.294ZM115.33 144.265L114.82 143.405L113.258 144.331L114.876 145.156L115.33 144.265ZM117.699 142.86L118.153 141.969L117.662 141.719L117.189 142L117.699 142.86ZM123.775 145.957L123.321 146.848L124.462 147.43L124.749 146.182L123.775 145.957ZM124.464 142.97L125.438 143.194L125.528 142.804L125.324 142.459L124.464 142.97ZM122.656 139.921L123.166 140.781L125.228 139.558L124.717 138.698L124.207 137.838L122.146 139.061L122.656 139.921ZM124.717 138.698L123.857 139.208L133.431 155.351L134.291 154.841L135.151 154.331L125.578 138.188L124.717 138.698ZM134.291 154.841L133.781 153.981L131.719 155.204L132.229 156.064L132.739 156.924L134.801 155.701L134.291 154.841ZM132.229 156.064L133.089 155.554L126.885 145.091L126.025 145.601L125.164 146.112L131.369 156.574L132.229 156.064ZM126.025 145.601L125.049 145.382L123.281 153.249L124.257 153.469L125.232 153.688L127 145.821L126.025 145.601ZM124.257 153.469L123.747 152.609L121.159 154.143L121.669 155.004L122.179 155.864L124.767 154.329L124.257 153.469ZM121.669 155.004L122.642 155.231L124.208 148.521L123.234 148.294L122.26 148.067L120.695 154.776L121.669 155.004ZM123.234 148.294L123.688 147.403L115.784 143.374L115.33 144.265L114.876 145.156L122.78 149.185L123.234 148.294ZM115.33 144.265L115.84 145.125L118.209 143.721L117.699 142.86L117.189 142L114.82 143.405L115.33 144.265ZM117.699 142.86L117.245 143.751L123.321 146.848L123.775 145.957L124.229 145.066L118.153 141.969L117.699 142.86ZM123.775 145.957L124.749 146.182L125.438 143.194L124.464 142.97L123.489 142.745L122.8 145.733L123.775 145.957ZM124.464 142.97L125.324 142.459L123.516 139.411L122.656 139.921L121.796 140.431L123.604 143.48L124.464 142.97Z" fill="#0000FF" mask="url(#path-20-outside-10_177_335)"/>
<mask id="path-22-outside-11_177_335" maskUnits="userSpaceOnUse" x="98.3327" y="148.921" width="11.7801" height="11.7801" fill="black">
<rect fill="white" x="98.3327" y="148.921" width="11.7801" height="11.7801"/>
<path d="M103.301 151.004C105.3 150.601 107.333 151.907 107.731 153.882C108.13 155.857 106.773 157.9 104.773 158.303C102.773 158.706 100.781 157.339 100.382 155.365C99.9839 153.39 101.326 151.402 103.301 151.004Z"/>
</mask>
<path d="M103.301 151.004C105.3 150.601 107.333 151.907 107.731 153.882C108.13 155.857 106.773 157.9 104.773 158.303C102.773 158.706 100.781 157.339 100.382 155.365C99.9839 153.39 101.326 151.402 103.301 151.004Z" fill="#0000FF"/>
<path d="M103.301 151.004L103.498 151.984C104.978 151.686 106.466 152.668 106.751 154.08L107.731 153.882L108.711 153.684C108.2 151.147 105.622 149.515 103.103 150.024L103.301 151.004ZM107.731 153.882L106.751 154.08C107.039 155.509 106.038 157.028 104.575 157.323L104.773 158.303L104.971 159.283C107.508 158.771 109.22 156.205 108.711 153.684L107.731 153.882ZM104.773 158.303L104.575 157.323C103.13 157.614 101.654 156.613 101.363 155.167L100.382 155.365L99.402 155.562C99.907 158.066 102.417 159.798 104.971 159.283L104.773 158.303ZM100.382 155.365L101.363 155.167C101.075 153.742 102.056 152.275 103.498 151.984L103.301 151.004L103.103 150.024C100.595 150.53 98.8927 153.038 99.402 155.562L100.382 155.365Z" fill="#0000FF" mask="url(#path-22-outside-11_177_335)"/>
<mask id="path-24-outside-12_177_335" maskUnits="userSpaceOnUse" x="72.8147" y="145.319" width="18.2147" height="18.2147" fill="black">
<rect fill="white" x="72.8147" y="145.319" width="18.2147" height="18.2147"/>
<path d="M87.8985 155.582C87.3222 159.389 84.1946 161.649 80.4883 161.088C76.8073 160.531 74.4889 157.446 75.0653 153.639C75.6416 149.832 78.7692 147.571 82.4503 148.129C86.1565 148.69 88.4749 151.774 87.8985 155.582ZM85.5033 155.219C85.8927 152.647 84.5248 150.609 82.1296 150.246C79.7596 149.888 77.8246 151.426 77.4353 153.997C77.0459 156.569 78.4389 158.611 80.8089 158.97C83.2042 159.333 85.114 157.791 85.5033 155.219Z"/>
</mask>
<path d="M87.8985 155.582C87.3222 159.389 84.1946 161.649 80.4883 161.088C76.8073 160.531 74.4889 157.446 75.0653 153.639C75.6416 149.832 78.7692 147.571 82.4503 148.129C86.1565 148.69 88.4749 151.774 87.8985 155.582ZM85.5033 155.219C85.8927 152.647 84.5248 150.609 82.1296 150.246C79.7596 149.888 77.8246 151.426 77.4353 153.997C77.0459 156.569 78.4389 158.611 80.8089 158.97C83.2042 159.333 85.114 157.791 85.5033 155.219Z" fill="#0000FF"/>
<path d="M87.8985 155.582L86.9098 155.432C86.4161 158.693 83.7982 160.578 80.638 160.099L80.4883 161.088L80.3386 162.077C84.591 162.72 88.2282 160.084 88.8873 155.731L87.8985 155.582ZM80.4883 161.088L80.638 160.099C77.5056 159.625 75.5599 157.052 76.054 153.788L75.0653 153.639L74.0765 153.489C73.4179 157.84 76.1089 161.436 80.3386 162.077L80.4883 161.088ZM75.0653 153.639L76.054 153.788C76.5481 150.525 79.1682 148.643 82.3006 149.117L82.4503 148.129L82.5999 147.14C78.3703 146.499 74.7352 149.138 74.0765 153.489L75.0653 153.639ZM82.4503 148.129L82.3006 149.117C85.4608 149.596 87.4035 152.171 86.9098 155.432L87.8985 155.582L88.8873 155.731C89.5463 151.378 86.8523 147.784 82.5999 147.14L82.4503 148.129ZM85.5033 155.219L86.4921 155.369C86.7185 153.873 86.4427 152.458 85.689 151.344C84.9303 150.222 83.7358 149.478 82.2793 149.258L82.1296 150.246L81.9799 151.235C82.9187 151.377 83.6056 151.834 84.0323 152.464C84.464 153.103 84.6774 153.994 84.5146 155.069L85.5033 155.219ZM82.1296 150.246L82.2793 149.258C80.8333 149.039 79.4735 149.398 78.416 150.241C77.3644 151.08 76.6736 152.348 76.4465 153.848L77.4353 153.997L78.424 154.147C78.5862 153.075 79.0576 152.288 79.6634 151.805C80.2632 151.326 81.056 151.095 81.9799 151.235L82.1296 150.246ZM77.4353 153.997L76.4465 153.848C76.2194 155.348 76.5041 156.763 77.2602 157.876C78.0206 158.995 79.2132 159.74 80.6593 159.959L80.8089 158.97L80.9586 157.981C80.0346 157.841 79.3458 157.386 78.9145 156.752C78.4789 156.111 78.2617 155.219 78.424 154.147L77.4353 153.997ZM80.8089 158.97L80.6593 159.959C82.1157 160.179 83.477 159.822 84.5337 158.975C85.5835 158.134 86.2656 156.865 86.4921 155.369L85.5033 155.219L84.5146 155.069C84.3517 156.145 83.8842 156.933 83.2829 157.415C82.6886 157.891 81.8974 158.123 80.9586 157.981L80.8089 158.97Z" fill="#0000FF" mask="url(#path-24-outside-12_177_335)"/>
<mask id="path-26-outside-13_177_335" maskUnits="userSpaceOnUse" x="54.0994" y="134.189" width="23.2" height="25.7122" fill="black">
<rect fill="white" x="54.0994" y="134.189" width="23.2" height="25.7122"/>
<path d="M75.1376 141.326L67.7399 157.795L65.7627 156.907L66.5194 154.787C65.0517 156 63.1508 156.125 61.3364 155.31C58.0799 153.847 57.1533 150.496 58.7206 147.006C60.2774 143.541 63.3551 141.792 66.7279 143.307C68.5423 144.122 69.7095 145.569 69.8269 147.299L72.9511 140.344L75.1376 141.326ZM68.09 151.103C69.1349 148.777 68.5381 146.496 66.305 145.493C64.072 144.49 61.9938 145.569 60.9489 147.896C59.8936 150.245 60.4672 152.515 62.7002 153.518C64.9333 154.521 67.0243 153.476 68.09 151.103Z"/>
</mask>
<path d="M75.1376 141.326L67.7399 157.795L65.7627 156.907L66.5194 154.787C65.0517 156 63.1508 156.125 61.3364 155.31C58.0799 153.847 57.1533 150.496 58.7206 147.006C60.2774 143.541 63.3551 141.792 66.7279 143.307C68.5423 144.122 69.7095 145.569 69.8269 147.299L72.9511 140.344L75.1376 141.326ZM68.09 151.103C69.1349 148.777 68.5381 146.496 66.305 145.493C64.072 144.49 61.9938 145.569 60.9489 147.896C59.8936 150.245 60.4672 152.515 62.7002 153.518C64.9333 154.521 67.0243 153.476 68.09 151.103Z" fill="#0000FF"/>
<path d="M75.1376 141.326L76.0498 141.736L76.4595 140.824L75.5473 140.414L75.1376 141.326ZM67.7399 157.795L67.3302 158.707L68.2424 159.117L68.6521 158.205L67.7399 157.795ZM65.7627 156.907L64.8209 156.571L64.5105 157.441L65.353 157.819L65.7627 156.907ZM66.5194 154.787L67.4612 155.123L68.6828 151.7L65.8821 154.016L66.5194 154.787ZM69.8269 147.299L68.8292 147.367L70.7391 147.709L69.8269 147.299ZM72.9511 140.344L73.3608 139.432L72.4486 139.022L72.0389 139.934L72.9511 140.344ZM75.1376 141.326L74.2254 140.916L66.8277 157.385L67.7399 157.795L68.6521 158.205L76.0498 141.736L75.1376 141.326ZM67.7399 157.795L68.1497 156.883L66.1725 155.995L65.7627 156.907L65.353 157.819L67.3302 158.707L67.7399 157.795ZM65.7627 156.907L66.7045 157.243L67.4612 155.123L66.5194 154.787L65.5776 154.451L64.8209 156.571L65.7627 156.907ZM66.5194 154.787L65.8821 154.016C64.7584 154.945 63.2771 155.085 61.7462 154.398L61.3364 155.31L60.9267 156.222C63.0245 157.164 65.345 157.055 67.1567 155.557L66.5194 154.787ZM61.3364 155.31L61.7462 154.398C60.3622 153.776 59.5292 152.788 59.1763 151.627C58.818 150.448 58.9262 148.989 59.6328 147.416L58.7206 147.006L57.8084 146.597C56.9477 148.513 56.7355 150.474 57.2628 152.209C57.7955 153.962 59.0541 155.381 60.9267 156.222L61.3364 155.31ZM58.7206 147.006L59.6328 147.416C60.3399 145.842 61.3552 144.741 62.4843 144.186C63.5884 143.644 64.8886 143.577 66.3182 144.219L66.7279 143.307L67.1377 142.395C65.1945 141.522 63.2694 141.572 61.6022 142.391C59.9601 143.198 58.6581 144.705 57.8084 146.597L58.7206 147.006ZM66.7279 143.307L66.3182 144.219C67.8803 144.921 68.7425 146.089 68.8292 147.367L69.8269 147.299L70.8246 147.231C70.6764 145.049 69.2043 143.323 67.1377 142.395L66.7279 143.307ZM69.8269 147.299L70.7391 147.709L73.8633 140.754L72.9511 140.344L72.0389 139.934L68.9147 146.889L69.8269 147.299ZM72.9511 140.344L72.5413 141.256L74.7278 142.238L75.1376 141.326L75.5473 140.414L73.3608 139.432L72.9511 140.344ZM68.09 151.103L69.0022 151.513C69.6015 150.179 69.7655 148.777 69.3841 147.513C68.9968 146.23 68.0763 145.193 66.7148 144.581L66.305 145.493L65.8953 146.406C66.7668 146.797 67.2613 147.402 67.4694 148.091C67.6834 148.8 67.6235 149.702 67.1778 150.694L68.09 151.103ZM66.305 145.493L66.7148 144.581C65.3525 143.969 63.9694 143.973 62.7573 144.54C61.5652 145.099 60.6342 146.156 60.0367 147.486L60.9489 147.896L61.8611 148.305C62.3085 147.309 62.939 146.664 63.6055 146.352C64.2519 146.049 65.0245 146.014 65.8953 146.406L66.305 145.493ZM60.9489 147.896L60.0367 147.486C59.4349 148.826 59.2594 150.229 59.6322 151.494C60.0114 152.782 60.928 153.819 62.2905 154.431L62.7002 153.518L63.11 152.606C62.2394 152.215 61.7527 151.615 61.5507 150.929C61.3422 150.222 61.4076 149.315 61.8611 148.305L60.9489 147.896ZM62.7002 153.518L62.2905 154.431C63.6482 155.04 65.0328 155.049 66.2527 154.484C67.4538 153.929 68.3943 152.867 69.0022 151.513L68.09 151.103L67.1778 150.694C66.7201 151.713 66.0821 152.36 65.413 152.669C64.7628 152.97 63.9853 152.999 63.11 152.606L62.7002 153.518Z" fill="#0000FF" mask="url(#path-26-outside-13_177_335)"/>
<mask id="path-28-outside-14_177_335" maskUnits="userSpaceOnUse" x="39.5026" y="129.373" width="22.511" height="22.511" fill="black">
<rect fill="white" x="39.5026" y="129.373" width="22.511" height="22.511"/>
<path d="M54.6538 135.668C57.4999 137.988 57.781 141.639 55.332 144.643C52.8668 147.667 49.2417 148.199 46.4351 145.911C43.6878 143.672 43.436 140.308 45.7722 137.442L46.3361 136.75L53.8234 142.821C55.3446 140.673 55.1957 138.676 53.3575 137.177C51.9147 136.001 50.4826 135.821 49.2641 136.67L47.5248 135.252C49.6909 133.563 52.2623 133.718 54.6538 135.668ZM47.708 144.35C49.3287 145.671 51.146 145.54 52.7688 144.034L47.1951 139.49C45.89 141.091 46.0675 143.013 47.708 144.35Z"/>
</mask>
<path d="M54.6538 135.668C57.4999 137.988 57.781 141.639 55.332 144.643C52.8668 147.667 49.2417 148.199 46.4351 145.911C43.6878 143.672 43.436 140.308 45.7722 137.442L46.3361 136.75L53.8234 142.821C55.3446 140.673 55.1957 138.676 53.3575 137.177C51.9147 136.001 50.4826 135.821 49.2641 136.67L47.5248 135.252C49.6909 133.563 52.2623 133.718 54.6538 135.668ZM47.708 144.35C49.3287 145.671 51.146 145.54 52.7688 144.034L47.1951 139.49C45.89 141.091 46.0675 143.013 47.708 144.35Z" fill="#0000FF"/>
<path d="M46.3361 136.75L46.9659 135.974L46.1912 135.346L45.5611 136.119L46.3361 136.75ZM53.8234 142.821L53.1936 143.598L54.0227 144.27L54.6395 143.399L53.8234 142.821ZM49.2641 136.67L48.6323 137.445L49.2169 137.922L49.8358 137.49L49.2641 136.67ZM47.5248 135.252L46.91 134.463L45.9207 135.235L46.8929 136.027L47.5248 135.252ZM52.7688 144.034L53.4491 144.767L54.2914 143.985L53.4006 143.259L52.7688 144.034ZM47.1951 139.49L47.8269 138.715L47.0518 138.084L46.42 138.859L47.1951 139.49ZM54.6538 135.668L54.022 136.443C55.2508 137.445 55.884 138.692 55.9814 139.975C56.0793 141.263 55.6429 142.679 54.5569 144.011L55.332 144.643L56.1071 145.275C57.4701 143.603 58.1177 141.692 57.9757 139.823C57.8333 137.949 56.9029 136.211 55.2856 134.893L54.6538 135.668ZM55.332 144.643L54.5569 144.011C53.4578 145.359 52.1495 146.095 50.8693 146.279C49.5981 146.462 48.2675 146.115 47.067 145.136L46.4351 145.911L45.8033 146.686C47.4093 147.996 49.2946 148.526 51.1539 148.259C53.0041 147.993 54.741 146.951 56.1071 145.275L55.332 144.643ZM46.4351 145.911L47.067 145.136C45.8785 144.167 45.2851 143.008 45.1944 141.835C45.1031 140.655 45.5119 139.344 46.5473 138.074L45.7722 137.442L44.9971 136.81C43.6963 138.406 43.0628 140.211 43.2003 141.989C43.3383 143.773 44.2444 145.416 45.8033 146.686L46.4351 145.911ZM45.7722 137.442L46.5473 138.074L47.1112 137.382L46.3361 136.75L45.5611 136.119L44.9971 136.81L45.7722 137.442ZM46.3361 136.75L45.7064 137.527L53.1936 143.598L53.8234 142.821L54.4532 142.044L46.9659 135.974L46.3361 136.75ZM53.8234 142.821L54.6395 143.399C55.4877 142.201 55.9484 140.935 55.847 139.675C55.7439 138.394 55.0736 137.286 53.9894 136.402L53.3575 137.177L52.7257 137.953C53.4796 138.567 53.8028 139.206 53.8534 139.836C53.9057 140.486 53.6803 141.293 53.0072 142.243L53.8234 142.821ZM53.3575 137.177L53.9894 136.402C53.1673 135.732 52.2777 135.287 51.3503 135.172C50.4026 135.054 49.4941 135.291 48.6924 135.849L49.2641 136.67L49.8358 137.49C50.2526 137.2 50.6694 137.103 51.1031 137.157C51.557 137.213 52.1049 137.446 52.7257 137.953L53.3575 137.177ZM49.2641 136.67L49.8959 135.895L48.1566 134.477L47.5248 135.252L46.8929 136.027L48.6323 137.445L49.2641 136.67ZM47.5248 135.252L48.1396 136.041C49.0508 135.33 49.9998 135.038 50.946 135.094C51.9037 135.15 52.9501 135.569 54.022 136.443L54.6538 135.668L55.2856 134.893C53.9659 133.817 52.5309 133.184 51.0635 133.097C49.5846 133.01 48.1649 133.485 46.91 134.463L47.5248 135.252ZM47.708 144.35L47.0761 145.125C48.0468 145.916 49.1484 146.325 50.3024 146.25C51.4462 146.176 52.514 145.635 53.4491 144.767L52.7688 144.034L52.0885 143.301C51.4007 143.94 50.7485 144.217 50.1728 144.254C49.6073 144.291 48.9899 144.105 48.3398 143.575L47.708 144.35ZM52.7688 144.034L53.4006 143.259L47.8269 138.715L47.1951 139.49L46.5632 140.266L52.1369 144.809L52.7688 144.034ZM47.1951 139.49L46.42 138.859C45.6271 139.831 45.2349 140.969 45.3521 142.12C45.4694 143.272 46.0843 144.316 47.0761 145.125L47.708 144.35L48.3398 143.575C47.6912 143.046 47.3971 142.461 47.3418 141.918C47.2864 141.374 47.458 140.751 47.9702 140.122L47.1951 139.49Z" fill="#0000FF" mask="url(#path-28-outside-14_177_335)"/>
<mask id="path-30-outside-15_177_335" maskUnits="userSpaceOnUse" x="28.632" y="118.517" width="20.9651" height="20.9651" fill="black">
<rect fill="white" x="28.632" y="118.517" width="20.9651" height="20.9651"/>
<path d="M46.349 127.875L47.7656 129.809L37.707 137.179L36.426 135.43L37.818 134.094C36.1989 134.3 34.5857 133.522 33.5458 132.103C31.6016 129.45 32.3375 127.045 34.9087 125.162L41.0591 120.655L42.4758 122.589L36.7573 126.779C34.7209 128.271 34.5914 129.82 35.6765 131.301C37.0027 133.111 39.0673 133.21 41.0214 131.779L46.349 127.875Z"/>
</mask>
<path d="M46.349 127.875L47.7656 129.809L37.707 137.179L36.426 135.43L37.818 134.094C36.1989 134.3 34.5857 133.522 33.5458 132.103C31.6016 129.45 32.3375 127.045 34.9087 125.162L41.0591 120.655L42.4758 122.589L36.7573 126.779C34.7209 128.271 34.5914 129.82 35.6765 131.301C37.0027 133.111 39.0673 133.21 41.0214 131.779L46.349 127.875Z" fill="#0000FF"/>
<path d="M46.349 127.875L47.1556 127.284L46.5646 126.478L45.758 127.069L46.349 127.875ZM47.7656 129.809L48.3567 130.616L49.1633 130.025L48.5723 129.218L47.7656 129.809ZM37.707 137.179L36.9003 137.77L37.4914 138.576L38.298 137.985L37.707 137.179ZM36.426 135.43L35.7335 134.709L35.1019 135.315L35.6193 136.021L36.426 135.43ZM37.818 134.094L38.5104 134.816L40.6944 132.72L37.6916 133.102L37.818 134.094ZM41.0591 120.655L41.8657 120.064L41.2747 119.258L40.4681 119.849L41.0591 120.655ZM42.4758 122.589L43.0668 123.396L43.8734 122.805L43.2824 121.998L42.4758 122.589ZM46.349 127.875L45.5423 128.466L46.959 130.4L47.7656 129.809L48.5723 129.218L47.1556 127.284L46.349 127.875ZM47.7656 129.809L47.1746 129.002L37.116 136.372L37.707 137.179L38.298 137.985L48.3567 130.616L47.7656 129.809ZM37.707 137.179L38.5137 136.588L37.2326 134.839L36.426 135.43L35.6193 136.021L36.9003 137.77L37.707 137.179ZM36.426 135.43L37.1184 136.152L38.5104 134.816L37.818 134.094L37.1256 133.373L35.7335 134.709L36.426 135.43ZM37.818 134.094L37.6916 133.102C36.4838 133.256 35.2093 132.682 34.3525 131.512L33.5458 132.103L32.7391 132.694C33.9621 134.363 35.914 135.345 37.9444 135.086L37.818 134.094ZM33.5458 132.103L34.3525 131.512C33.5053 130.356 33.3258 129.382 33.5097 128.563C33.7004 127.713 34.3275 126.827 35.4997 125.968L34.9087 125.162L34.3177 124.355C32.9187 125.38 31.8922 126.638 31.5583 128.125C31.2175 129.642 31.6421 131.197 32.7391 132.694L33.5458 132.103ZM34.9087 125.162L35.4997 125.968L41.6501 121.462L41.0591 120.655L40.4681 119.849L34.3177 124.355L34.9087 125.162ZM41.0591 120.655L40.2524 121.246L41.6691 123.18L42.4758 122.589L43.2824 121.998L41.8657 120.064L41.0591 120.655ZM42.4758 122.589L41.8847 121.782L36.1663 125.972L36.7573 126.779L37.3484 127.585L43.0668 123.396L42.4758 122.589ZM36.7573 126.779L36.1663 125.972C35.0376 126.799 34.2842 127.752 34.0657 128.848C33.8429 129.966 34.2196 131.004 34.8698 131.892L35.6765 131.301L36.4832 130.71C36.0483 130.116 35.9472 129.64 36.0271 129.239C36.1111 128.818 36.4407 128.25 37.3484 127.585L36.7573 126.779ZM35.6765 131.301L34.8698 131.892C35.6842 133.003 36.7855 133.655 38.0358 133.752C39.2613 133.848 40.4981 133.402 41.6124 132.585L41.0214 131.779L40.4304 130.972C39.5906 131.587 38.818 131.807 38.1912 131.758C37.5892 131.712 36.995 131.408 36.4832 130.71L35.6765 131.301ZM41.0214 131.779L41.6124 132.585L46.94 128.682L46.349 127.875L45.758 127.069L40.4304 130.972L41.0214 131.779Z" fill="#0000FF" mask="url(#path-30-outside-15_177_335)"/>
<mask id="path-32-outside-16_177_335" maskUnits="userSpaceOnUse" x="17.2929" y="103.351" width="21.1182" height="15.2132" fill="black">
<rect fill="white" x="17.2929" y="103.351" width="21.1182" height="15.2132"/>
<path d="M35.591 107.225L36.3061 109.513L26.3273 112.633L27.0576 114.969L25.1349 115.57L24.4045 113.234L20.6807 114.398L19.9656 112.11L23.6894 110.946L22.959 108.609L24.8818 108.008L25.6121 110.345L35.591 107.225Z"/>
</mask>
<path d="M35.591 107.225L36.3061 109.513L26.3273 112.633L27.0576 114.969L25.1349 115.57L24.4045 113.234L20.6807 114.398L19.9656 112.11L23.6894 110.946L22.959 108.609L24.8818 108.008L25.6121 110.345L35.591 107.225Z" fill="#0000FF"/>
<path d="M35.591 107.225L36.5455 106.927L36.2471 105.973L35.2926 106.271L35.591 107.225ZM36.3061 109.513L36.6045 110.468L37.5589 110.169L37.2606 109.215L36.3061 109.513ZM26.3273 112.633L26.0289 111.678L25.0745 111.976L25.3728 112.931L26.3273 112.633ZM27.0576 114.969L27.356 115.924L28.3104 115.625L28.0121 114.671L27.0576 114.969ZM25.1349 115.57L24.1804 115.868L24.4788 116.823L25.4332 116.525L25.1349 115.57ZM24.4045 113.234L25.359 112.935L25.0606 111.981L24.1062 112.279L24.4045 113.234ZM20.6807 114.398L19.7263 114.696L20.0246 115.65L20.9791 115.352L20.6807 114.398ZM19.9656 112.11L19.6672 111.155L18.7128 111.454L19.0111 112.408L19.9656 112.11ZM23.6894 110.946L23.9877 111.9L24.9422 111.602L24.6438 110.647L23.6894 110.946ZM22.959 108.609L22.6607 107.655L21.7062 107.953L22.0046 108.908L22.959 108.609ZM24.8818 108.008L25.8362 107.71L25.5379 106.755L24.5834 107.054L24.8818 108.008ZM25.6121 110.345L24.6577 110.643L24.956 111.598L25.9105 111.299L25.6121 110.345ZM35.591 107.225L34.6365 107.524L35.3517 109.812L36.3061 109.513L37.2606 109.215L36.5455 106.927L35.591 107.225ZM36.3061 109.513L36.0078 108.559L26.0289 111.678L26.3273 112.633L26.6256 113.587L36.6045 110.468L36.3061 109.513ZM26.3273 112.633L25.3728 112.931L26.1032 115.267L27.0576 114.969L28.0121 114.671L27.2817 112.334L26.3273 112.633ZM27.0576 114.969L26.7593 114.015L24.8365 114.616L25.1349 115.57L25.4332 116.525L27.356 115.924L27.0576 114.969ZM25.1349 115.57L26.0893 115.272L25.359 112.935L24.4045 113.234L23.4501 113.532L24.1804 115.868L25.1349 115.57ZM24.4045 113.234L24.1062 112.279L20.3824 113.443L20.6807 114.398L20.9791 115.352L24.7029 114.188L24.4045 113.234ZM20.6807 114.398L21.6352 114.099L20.92 111.811L19.9656 112.11L19.0111 112.408L19.7263 114.696L20.6807 114.398ZM19.9656 112.11L20.2639 113.064L23.9877 111.9L23.6894 110.946L23.391 109.991L19.6672 111.155L19.9656 112.11ZM23.6894 110.946L24.6438 110.647L23.9135 108.311L22.959 108.609L22.0046 108.908L22.7349 111.244L23.6894 110.946ZM22.959 108.609L23.2574 109.564L25.1801 108.963L24.8818 108.008L24.5834 107.054L22.6607 107.655L22.959 108.609ZM24.8818 108.008L23.9273 108.307L24.6577 110.643L25.6121 110.345L26.5666 110.046L25.8362 107.71L24.8818 108.008ZM25.6121 110.345L25.9105 111.299L35.8893 108.18L35.591 107.225L35.2926 106.271L25.3138 109.39L25.6121 110.345Z" fill="#0000FF" mask="url(#path-32-outside-16_177_335)"/>
<mask id="path-34-outside-17_177_335" maskUnits="userSpaceOnUse" x="18.9518" y="89.0314" width="17.4822" height="17.4822" fill="black">
<rect fill="white" x="18.9518" y="89.0314" width="17.4822" height="17.4822"/>
<path d="M28.0389 103.85C24.2067 104.225 21.2483 101.747 20.8833 98.0163C20.5207 94.311 22.9427 91.3068 26.7749 90.9318C30.6071 90.5568 33.5654 93.0345 33.928 96.7398C34.293 100.47 31.8711 103.475 28.0389 103.85ZM27.803 101.439C30.3916 101.185 32.0321 99.3594 31.7962 96.9484C31.5627 94.5628 29.5969 93.0641 27.0083 93.3174C24.4197 93.5707 22.7817 95.4221 23.0151 97.8077C23.251 100.219 25.2143 101.692 27.803 101.439Z"/>
</mask>
<path d="M28.0389 103.85C24.2067 104.225 21.2483 101.747 20.8833 98.0163C20.5207 94.311 22.9427 91.3068 26.7749 90.9318C30.6071 90.5568 33.5654 93.0345 33.928 96.7398C34.293 100.47 31.8711 103.475 28.0389 103.85ZM27.803 101.439C30.3916 101.185 32.0321 99.3594 31.7962 96.9484C31.5627 94.5628 29.5969 93.0641 27.0083 93.3174C24.4197 93.5707 22.7817 95.4221 23.0151 97.8077C23.251 100.219 25.2143 101.692 27.803 101.439Z" fill="#0000FF"/>
<path d="M28.0389 103.85L27.9415 102.854C24.659 103.176 22.1898 101.1 21.8785 97.9189L20.8833 98.0163L19.888 98.1137C20.3069 102.394 23.7544 105.274 28.1363 104.845L28.0389 103.85ZM20.8833 98.0163L21.8785 97.9189C21.57 94.7658 23.5871 92.2485 26.8722 91.9271L26.7749 90.9318L26.6775 89.9366C22.2982 90.3651 19.4714 93.8561 19.888 98.1137L20.8833 98.0163ZM26.7749 90.9318L26.8722 91.9271C30.1574 91.6056 32.6242 93.6841 32.9327 96.8372L33.928 96.7398L34.9232 96.6424C34.5066 92.3849 31.0567 89.5081 26.6775 89.9366L26.7749 90.9318ZM33.928 96.7398L32.9327 96.8372C33.244 100.018 31.2241 102.533 27.9415 102.854L28.0389 103.85L28.1363 104.845C32.5181 104.416 35.3421 100.923 34.9232 96.6424L33.928 96.7398ZM27.803 101.439L27.9004 102.434C29.4062 102.287 30.7096 101.672 31.6051 100.668C32.5065 99.6577 32.9349 98.3171 32.7914 96.851L31.7962 96.9484L30.8009 97.0458C30.8934 97.9907 30.6195 98.7686 30.1125 99.337C29.5996 99.9121 28.7884 100.337 27.7056 100.443L27.803 101.439ZM31.7962 96.9484L32.7914 96.851C32.649 95.3955 31.9676 94.1652 30.8903 93.347C29.8189 92.5333 28.4208 92.1744 26.9109 92.3222L27.0083 93.3174L27.1057 94.3127C28.1844 94.2071 29.0635 94.471 29.6806 94.9397C30.2917 95.4038 30.7099 96.1157 30.8009 97.0458L31.7962 96.9484ZM27.0083 93.3174L26.9109 92.3222C25.401 92.4699 24.099 93.093 23.2057 94.0989C22.3074 95.1105 21.8774 96.4495 22.0199 97.905L23.0151 97.8077L24.0104 97.7103C23.9193 96.7802 24.1916 96.0007 24.7012 95.4269C25.2157 94.8475 26.027 94.4182 27.1057 94.3127L27.0083 93.3174ZM23.0151 97.8077L22.0199 97.905C22.1633 99.3711 22.8435 100.603 23.9237 101.42C24.9968 102.231 26.3945 102.581 27.9004 102.434L27.803 101.439L27.7056 100.443C26.6228 100.549 25.7445 100.289 25.1299 99.8246C24.5223 99.3652 24.1028 98.6552 24.0104 97.7103L23.0151 97.8077Z" fill="#0000FF" mask="url(#path-34-outside-17_177_335)"/>
<mask id="path-36-outside-18_177_335" maskUnits="userSpaceOnUse" x="19.5704" y="56.7361" width="21.6792" height="26.6338" fill="black">
<rect fill="white" x="19.5704" y="56.7361" width="21.6792" height="26.6338"/>
<path d="M34.8958 76.9827L21.7775 76.7742L22.5839 74.4359L29.3804 74.595C30.3397 74.6292 31.3148 74.6957 32.4262 74.8363C31.4561 74.2859 30.5759 73.6316 29.8959 73.1004L24.4546 69.0119L25.2527 66.6977L32.0492 66.8568C32.6943 66.8635 34.2014 66.9517 35.1116 67.0498C34.238 66.5327 33.4932 66.0331 32.573 65.3381L27.1317 61.2496L27.9465 58.8872L38.3461 66.9785L37.6062 69.124L30.5836 68.9948C29.2693 68.9731 28.2701 68.8982 27.5777 68.7943C28.1147 69.1144 28.8113 69.5974 30.0839 70.5218L35.669 74.7408L34.8958 76.9827Z"/>
</mask>
<path d="M34.8958 76.9827L21.7775 76.7742L22.5839 74.4359L29.3804 74.595C30.3397 74.6292 31.3148 74.6957 32.4262 74.8363C31.4561 74.2859 30.5759 73.6316 29.8959 73.1004L24.4546 69.0119L25.2527 66.6977L32.0492 66.8568C32.6943 66.8635 34.2014 66.9517 35.1116 67.0498C34.238 66.5327 33.4932 66.0331 32.573 65.3381L27.1317 61.2496L27.9465 58.8872L38.3461 66.9785L37.6062 69.124L30.5836 68.9948C29.2693 68.9731 28.2701 68.8982 27.5777 68.7943C28.1147 69.1144 28.8113 69.5974 30.0839 70.5218L35.669 74.7408L34.8958 76.9827Z" fill="#0000FF"/>
<path d="M34.8958 76.9827L34.8799 77.9826L35.6048 77.9941L35.8412 77.3088L34.8958 76.9827ZM21.7775 76.7742L20.8321 76.4482L20.3824 77.7522L21.7616 77.7741L21.7775 76.7742ZM22.5839 74.4359L22.6073 73.4362L21.8768 73.4191L21.6386 74.1099L22.5839 74.4359ZM29.3804 74.595L29.416 73.5956L29.4038 73.5953L29.3804 74.595ZM32.4262 74.8363L32.3008 75.8284L32.9197 73.9665L32.4262 74.8363ZM29.8959 73.1004L30.5115 72.3124L30.5041 72.3066L30.4966 72.3009L29.8959 73.1004ZM24.4546 69.0119L23.5092 68.6859L23.2719 69.3741L23.8539 69.8114L24.4546 69.0119ZM25.2527 66.6977L25.2761 65.698L24.5456 65.6809L24.3074 66.3717L25.2527 66.6977ZM32.0492 66.8568L32.0258 67.8566L32.0389 67.8568L32.0492 66.8568ZM35.1116 67.0498L35.0044 68.0441L35.621 66.1893L35.1116 67.0498ZM32.573 65.3381L33.1757 64.5401L33.1737 64.5386L32.573 65.3381ZM27.1317 61.2496L26.1863 60.9236L25.949 61.6118L26.531 62.0491L27.1317 61.2496ZM27.9465 58.8872L28.5605 58.0979L27.457 57.2393L27.0011 58.5611L27.9465 58.8872ZM38.3461 66.9785L39.2915 67.3045L39.5247 66.6284L38.9602 66.1893L38.3461 66.9785ZM37.6062 69.124L37.5878 70.1238L38.3146 70.1372L38.5515 69.45L37.6062 69.124ZM30.5836 68.9948L30.602 67.9949L30.6001 67.9949L30.5836 68.9948ZM27.5777 68.7943L27.7261 67.8054L27.0657 69.6533L27.5777 68.7943ZM30.0839 70.5218L30.6867 69.7239L30.6792 69.7182L30.6716 69.7127L30.0839 70.5218ZM35.669 74.7408L36.6144 75.0669L36.8511 74.3805L36.2718 73.9429L35.669 74.7408ZM34.8958 76.9827L34.9117 75.9829L21.7934 75.7744L21.7775 76.7742L21.7616 77.7741L34.8799 77.9826L34.8958 76.9827ZM21.7775 76.7742L22.7228 77.1003L23.5293 74.7619L22.5839 74.4359L21.6386 74.1099L20.8321 76.4482L21.7775 76.7742ZM22.5839 74.4359L22.5605 75.4356L29.357 75.5948L29.3804 74.595L29.4038 73.5953L22.6073 73.4362L22.5839 74.4359ZM29.3804 74.595L29.3449 75.5944C30.2801 75.6277 31.2246 75.6923 32.3008 75.8284L32.4262 74.8363L32.5517 73.8442C31.405 73.6992 30.3994 73.6306 29.416 73.5957L29.3804 74.595ZM32.4262 74.8363L32.9197 73.9665C32.0137 73.4525 31.179 72.8338 30.5115 72.3124L29.8959 73.1004L29.2803 73.8884C29.9728 74.4295 30.8986 75.1193 31.9328 75.706L32.4262 74.8363ZM29.8959 73.1004L30.4966 72.3009L25.0553 68.2125L24.4546 69.0119L23.8539 69.8114L29.2952 73.8999L29.8959 73.1004ZM24.4546 69.0119L25.3999 69.338L26.1981 67.0237L25.2527 66.6977L24.3074 66.3717L23.5092 68.6859L24.4546 69.0119ZM25.2527 66.6977L25.2293 67.6974L32.0258 67.8565L32.0492 66.8568L32.0726 65.8571L25.2761 65.698L25.2527 66.6977ZM32.0492 66.8568L32.0389 67.8568C32.6482 67.8631 34.1228 67.949 35.0044 68.0441L35.1116 67.0498L35.2188 66.0556C34.2799 65.9544 32.7404 65.8639 32.0596 65.8569L32.0492 66.8568ZM35.1116 67.0498L35.621 66.1893C34.7819 65.6926 34.0682 65.2142 33.1757 64.5401L32.573 65.3381L31.9703 66.1361C32.9182 66.852 33.6941 67.3728 34.6023 67.9104L35.1116 67.0498ZM32.573 65.3381L33.1737 64.5386L27.7324 60.4501L27.1317 61.2496L26.531 62.0491L31.9723 66.1376L32.573 65.3381ZM27.1317 61.2496L28.077 61.5756L28.8918 59.2132L27.9465 58.8872L27.0011 58.5611L26.1863 60.9236L27.1317 61.2496ZM27.9465 58.8872L27.3324 59.6764L37.7321 67.7678L38.3461 66.9785L38.9602 66.1893L28.5605 58.0979L27.9465 58.8872ZM38.3461 66.9785L37.4008 66.6525L36.6608 68.798L37.6062 69.124L38.5515 69.45L39.2915 67.3045L38.3461 66.9785ZM37.6062 69.124L37.6246 68.1242L30.602 67.995L30.5836 68.9948L30.5652 69.9946L37.5878 70.1238L37.6062 69.124ZM30.5836 68.9948L30.6001 67.9949C29.3092 67.9736 28.3582 67.9003 27.7261 67.8054L27.5777 68.7943L27.4292 69.7832C28.182 69.8962 29.2295 69.9726 30.5671 69.9946L30.5836 68.9948ZM27.5777 68.7943L27.0657 69.6533C27.558 69.9467 28.2197 70.4037 29.4962 71.3309L30.0839 70.5218L30.6716 69.7127C29.4028 68.7911 28.6713 68.282 28.0897 67.9353L27.5777 68.7943ZM30.0839 70.5218L29.4811 71.3197L35.0663 75.5388L35.669 74.7408L36.2718 73.9429L30.6867 69.7239L30.0839 70.5218ZM35.669 74.7408L34.7237 74.4148L33.9505 76.6567L34.8958 76.9827L35.8412 77.3088L36.6144 75.0669L35.669 74.7408Z" fill="#0000FF" mask="url(#path-36-outside-18_177_335)"/>
<mask id="path-38-outside-19_177_335" maskUnits="userSpaceOnUse" x="28.4908" y="42.2726" width="22.3777" height="22.3777" fill="black">
<rect fill="white" x="28.4908" y="42.2726" width="22.3777" height="22.3777"/>
<path d="M35.8646 58.2046C32.7686 55.9153 32.2326 52.0939 34.4612 49.0799C36.6747 46.0863 40.4855 45.479 43.5815 47.7683C46.6776 50.0576 47.2135 53.8791 45 56.8726C42.7714 59.8866 38.9606 60.4939 35.8646 58.2046ZM37.3049 56.2568C39.3962 57.8032 41.8375 57.5469 43.2777 55.5991C44.7029 53.6717 44.2477 51.2421 42.1564 49.6957C40.065 48.1492 37.6087 48.426 36.1835 50.3534C34.7432 52.3012 35.2135 54.7104 37.3049 56.2568Z"/>
</mask>
<path d="M35.8646 58.2046C32.7686 55.9153 32.2326 52.0939 34.4612 49.0799C36.6747 46.0863 40.4855 45.479 43.5815 47.7683C46.6776 50.0576 47.2135 53.8791 45 56.8726C42.7714 59.8866 38.9606 60.4939 35.8646 58.2046ZM37.3049 56.2568C39.3962 57.8032 41.8375 57.5469 43.2777 55.5991C44.7029 53.6717 44.2477 51.2421 42.1564 49.6957C40.065 48.1492 37.6087 48.426 36.1835 50.3534C34.7432 52.3012 35.2135 54.7104 37.3049 56.2568Z" fill="#0000FF"/>
<path d="M35.8646 58.2046L36.4591 57.4006C33.8072 55.4396 33.365 52.2444 35.2653 49.6744L34.4612 49.0799L33.6572 48.4853C31.1001 51.9434 31.7299 56.391 35.27 59.0087L35.8646 58.2046ZM34.4612 49.0799L35.2653 49.6744C37.1489 47.1271 40.3329 46.6099 42.987 48.5724L43.5815 47.7683L44.1761 46.9643C40.6381 44.3482 36.2006 45.0456 33.6572 48.4853L34.4612 49.0799ZM43.5815 47.7683L42.987 48.5724C45.641 50.5349 46.0796 53.7307 44.196 56.278L45 56.8726L45.8041 57.4671C48.3475 54.0275 47.7141 49.5804 44.1761 46.9643L43.5815 47.7683ZM45 56.8726L44.196 56.278C42.2957 58.848 39.1111 59.3615 36.4591 57.4006L35.8646 58.2046L35.27 59.0087C38.8101 61.6264 43.2471 60.9252 45.8041 57.4671L45 56.8726ZM37.3049 56.2568L36.7103 57.0609C37.9269 57.9604 39.306 58.3777 40.6435 58.2324C41.9898 58.0862 43.206 57.3781 44.0818 56.1936L43.2777 55.5991L42.4737 55.0045C41.9092 55.7679 41.1847 56.1619 40.4275 56.2441C39.6614 56.3273 38.7742 56.0996 37.8994 55.4527L37.3049 56.2568ZM43.2777 55.5991L44.0818 56.1936C44.9513 55.0177 45.2698 53.6479 45.0183 52.3186C44.7682 50.9967 43.9708 49.7936 42.7509 48.8916L42.1564 49.6957L41.5618 50.4997C42.4333 51.1441 42.9091 51.929 43.0532 52.6904C43.1958 53.4445 43.0293 54.2531 42.4737 55.0045L43.2777 55.5991ZM42.1564 49.6957L42.7509 48.8916C41.5311 47.9896 40.1471 47.5797 38.8099 47.728C37.4654 47.877 36.249 48.5829 35.3795 49.7588L36.1835 50.3534L36.9876 50.9479C37.5432 50.1965 38.2676 49.8003 39.0303 49.7158C39.8005 49.6304 40.6903 49.8553 41.5618 50.4997L42.1564 49.6957ZM36.1835 50.3534L35.3795 49.7588C34.5037 50.9433 34.183 52.3136 34.4377 53.6437C34.6907 54.965 35.4937 56.1613 36.7103 57.0609L37.3049 56.2568L37.8994 55.4527C37.0247 54.8059 36.5469 54.0244 36.402 53.2676C36.2588 52.5195 36.4231 51.7113 36.9876 50.9479L36.1835 50.3534Z" fill="#0000FF" mask="url(#path-38-outside-19_177_335)"/>
<mask id="path-40-outside-20_177_335" maskUnits="userSpaceOnUse" x="40.5058" y="33.4734" width="17.3987" height="17.876" fill="black">
<rect fill="white" x="40.5058" y="33.4734" width="17.3987" height="17.876"/>
<path d="M48.1295 35.29L49.572 36.9418L48.7653 37.6463C47.0559 39.1391 46.9052 41.0988 48.4819 42.9043L52.8261 47.8789L51.0207 49.4556L42.8354 40.0825L44.5256 38.6065L45.8821 39.9272C45.4108 38.6122 45.7816 37.1372 47.0685 36.0134C47.395 35.7283 47.6975 35.5319 48.1295 35.29Z"/>
</mask>
<path d="M48.1295 35.29L49.572 36.9418L48.7653 37.6463C47.0559 39.1391 46.9052 41.0988 48.4819 42.9043L52.8261 47.8789L51.0207 49.4556L42.8354 40.0825L44.5256 38.6065L45.8821 39.9272C45.4108 38.6122 45.7816 37.1372 47.0685 36.0134C47.395 35.7283 47.6975 35.5319 48.1295 35.29Z" fill="#0000FF"/>
<path d="M48.1295 35.29L48.8827 34.6323L48.349 34.0211L47.641 34.4175L48.1295 35.29ZM49.572 36.9418L50.2298 37.6951L50.983 37.0373L50.3252 36.2841L49.572 36.9418ZM52.8261 47.8789L53.4839 48.6321L54.2371 47.9744L53.5794 47.2212L52.8261 47.8789ZM51.0207 49.4556L50.2675 50.1134L50.9252 50.8666L51.6784 50.2088L51.0207 49.4556ZM42.8354 40.0825L42.1776 39.3293L41.4244 39.9871L42.0822 40.7403L42.8354 40.0825ZM44.5256 38.6065L45.2232 37.89L44.5625 37.2467L43.8678 37.8533L44.5256 38.6065ZM45.8821 39.9272L45.1845 40.6437L46.8234 39.5898L45.8821 39.9272ZM48.1295 35.29L47.3763 35.9478L48.8188 37.5996L49.572 36.9418L50.3252 36.2841L48.8827 34.6323L48.1295 35.29ZM49.572 36.9418L48.9142 36.1886L48.1075 36.8931L48.7653 37.6463L49.4231 38.3995L50.2298 37.6951L49.572 36.9418ZM48.7653 37.6463L48.1075 36.8931C47.0996 37.7733 46.4669 38.8704 46.3931 40.098C46.3194 41.3236 46.8126 42.5131 47.7287 43.5621L48.4819 42.9043L49.2351 42.2465C48.5745 41.49 48.3547 40.7969 48.3895 40.2181C48.4242 39.6413 48.7216 39.0121 49.4231 38.3995L48.7653 37.6463ZM48.4819 42.9043L47.7287 43.5621L52.0729 48.5367L52.8261 47.8789L53.5794 47.2212L49.2351 42.2465L48.4819 42.9043ZM52.8261 47.8789L52.1684 47.1257L50.3629 48.7024L51.0207 49.4556L51.6784 50.2088L53.4839 48.6321L52.8261 47.8789ZM51.0207 49.4556L51.7739 48.7978L43.5886 39.4248L42.8354 40.0825L42.0822 40.7403L50.2675 50.1134L51.0207 49.4556ZM42.8354 40.0825L43.4932 40.8358L45.1834 39.3597L44.5256 38.6065L43.8678 37.8533L42.1776 39.3293L42.8354 40.0825ZM44.5256 38.6065L43.828 39.323L45.1845 40.6437L45.8821 39.9272L46.5797 39.2107L45.2232 37.89L44.5256 38.6065ZM45.8821 39.9272L46.8234 39.5898C46.5053 38.7021 46.7159 37.649 47.7263 36.7667L47.0685 36.0134L46.4107 35.2602C44.8474 36.6255 44.3162 38.5222 44.9407 40.2646L45.8821 39.9272ZM47.0685 36.0134L47.7263 36.7667C47.9819 36.5434 48.2199 36.3855 48.618 36.1626L48.1295 35.29L47.641 34.4175C47.1751 34.6783 46.8081 34.9132 46.4107 35.2602L47.0685 36.0134Z" fill="#0000FF" mask="url(#path-40-outside-20_177_335)"/>
<mask id="path-42-outside-21_177_335" maskUnits="userSpaceOnUse" x="47.211" y="18.6952" width="24.2962" height="26.1664" fill="black">
<rect fill="white" x="47.211" y="18.6952" width="24.2962" height="26.1664"/>
<path d="M60.7431 41.923L58.6602 43.1093L49.3718 26.8009L51.4547 25.6146L57.4745 36.184L59.3801 28.3491L61.9948 26.8599L60.3122 33.5407L68.1439 37.7079L65.7508 39.0708L59.73 35.8678L58.9889 38.843L60.7431 41.923Z"/>
</mask>
<path d="M60.7431 41.923L58.6602 43.1093L49.3718 26.8009L51.4547 25.6146L57.4745 36.184L59.3801 28.3491L61.9948 26.8599L60.3122 33.5407L68.1439 37.7079L65.7508 39.0708L59.73 35.8678L58.9889 38.843L60.7431 41.923Z" fill="#0000FF"/>
<path d="M60.7431 41.923L61.238 42.7919L62.1069 42.297L61.612 41.4281L60.7431 41.923ZM58.6602 43.1093L57.7913 43.6042L58.2862 44.4731L59.1551 43.9782L58.6602 43.1093ZM49.3718 26.8009L48.8769 25.9319L48.0079 26.4268L48.5029 27.2958L49.3718 26.8009ZM51.4547 25.6146L52.3236 25.1197L51.8287 24.2507L50.9598 24.7456L51.4547 25.6146ZM57.4745 36.184L56.6055 36.6789L57.8512 38.8661L58.4461 36.4204L57.4745 36.184ZM59.3801 28.3491L58.8852 27.4801L58.5104 27.6936L58.4085 28.1127L59.3801 28.3491ZM61.9948 26.8599L62.9645 27.1041L63.5371 24.8307L61.4999 25.991L61.9948 26.8599ZM60.3122 33.5407L59.3424 33.2965L59.1512 34.0557L59.8424 34.4235L60.3122 33.5407ZM68.1439 37.7079L68.6388 38.5768L70.2168 37.6781L68.6136 36.825L68.1439 37.7079ZM65.7508 39.0708L65.2811 39.9537L65.7672 40.2123L66.2457 39.9398L65.7508 39.0708ZM59.73 35.8678L60.1997 34.9849L59.0692 34.3835L58.7597 35.626L59.73 35.8678ZM58.9889 38.843L58.0185 38.6013L57.9217 38.9899L58.1199 39.3379L58.9889 38.843ZM60.7431 41.923L60.2482 41.054L58.1653 42.2403L58.6602 43.1093L59.1551 43.9782L61.238 42.7919L60.7431 41.923ZM58.6602 43.1093L59.5292 42.6144L50.2407 26.306L49.3718 26.8009L48.5029 27.2958L57.7913 43.6042L58.6602 43.1093ZM49.3718 26.8009L49.8667 27.6698L51.9496 26.4835L51.4547 25.6146L50.9598 24.7456L48.8769 25.9319L49.3718 26.8009ZM51.4547 25.6146L50.5857 26.1095L56.6055 36.6789L57.4745 36.184L58.3434 35.6891L52.3236 25.1197L51.4547 25.6146ZM57.4745 36.184L58.4461 36.4204L60.3518 28.5854L59.3801 28.3491L58.4085 28.1127L56.5028 35.9477L57.4745 36.184ZM59.3801 28.3491L59.8751 29.218L62.4897 27.7289L61.9948 26.8599L61.4999 25.991L58.8852 27.4801L59.3801 28.3491ZM61.9948 26.8599L61.0251 26.6157L59.3424 33.2965L60.3122 33.5407L61.2819 33.7849L62.9645 27.1041L61.9948 26.8599ZM60.3122 33.5407L59.8424 34.4235L67.6742 38.5907L68.1439 37.7079L68.6136 36.825L60.7819 32.6579L60.3122 33.5407ZM68.1439 37.7079L67.649 36.8389L65.2559 38.2019L65.7508 39.0708L66.2457 39.9398L68.6388 38.5768L68.1439 37.7079ZM65.7508 39.0708L66.2205 38.188L60.1997 34.9849L59.73 35.8678L59.2604 36.7506L65.2811 39.9537L65.7508 39.0708ZM59.73 35.8678L58.7597 35.626L58.0185 38.6013L58.9889 38.843L59.9592 39.0847L60.7004 36.1095L59.73 35.8678ZM58.9889 38.843L58.1199 39.3379L59.8741 42.4179L60.7431 41.923L61.612 41.4281L59.8578 38.3481L58.9889 38.843Z" fill="#0000FF" mask="url(#path-42-outside-21_177_335)"/>
<mask id="path-44-outside-22_177_335" maskUnits="userSpaceOnUse" x="73.5994" y="21.5413" width="11.6423" height="11.6423" fill="black">
<rect fill="white" x="73.5994" y="21.5413" width="11.6423" height="11.6423"/>
<path d="M80.2764 31.1853C78.27 31.5539 76.2605 30.2119 75.8964 28.2306C75.5324 26.2492 76.9246 24.2305 78.931 23.8618C80.9374 23.4932 82.906 24.8946 83.27 26.8759C83.634 28.8572 82.2578 30.8213 80.2764 31.1853Z"/>
</mask>
<path d="M80.2764 31.1853C78.27 31.5539 76.2605 30.2119 75.8964 28.2306C75.5324 26.2492 76.9246 24.2305 78.931 23.8618C80.9374 23.4932 82.906 24.8946 83.27 26.8759C83.634 28.8572 82.2578 30.8213 80.2764 31.1853Z" fill="#0000FF"/>
<path d="M80.2764 31.1853L80.0957 30.2017C78.6107 30.4746 77.1402 29.4664 76.88 28.0499L75.8964 28.2306L74.9129 28.4113C75.3807 30.9574 77.9294 32.6332 80.4571 32.1688L80.2764 31.1853ZM75.8964 28.2306L76.88 28.0499C76.6166 26.616 77.6441 25.115 79.1117 24.8454L78.931 23.8618L78.7503 22.8783C76.205 23.3459 74.4483 25.8824 74.9129 28.4113L75.8964 28.2306ZM78.931 23.8618L79.1117 24.8454C80.5619 24.5789 82.0199 25.6054 82.2865 27.0566L83.27 26.8759L84.2536 26.6952C83.7922 24.1838 81.3129 22.4075 78.7503 22.8783L78.931 23.8618ZM83.27 26.8759L82.2865 27.0566C82.5491 28.486 81.5427 29.9359 80.0957 30.2017L80.2764 31.1853L80.4571 32.1688C82.9729 31.7066 84.719 29.2285 84.2536 26.6952L83.27 26.8759Z" fill="#0000FF" mask="url(#path-44-outside-22_177_335)"/>
</g>
</svg>
