<svg width="48" height="48" viewBox="0 0 48 48" fill="none" xmlns="http://www.w3.org/2000/svg">
<g filter="url(#filter0_d_271_50)">
<path d="M16.5397 32.56C15.9797 31.84 15.2797 30.38 14.0597 28.56C13.3597 27.56 11.6397 25.66 11.1197 24.68C10.9343 24.3855 10.8119 24.0557 10.7603 23.7115C10.7087 23.3672 10.7289 23.0161 10.8197 22.68C10.9715 22.0558 11.3456 21.5082 11.8721 21.1401C12.3986 20.7719 13.0413 20.6083 13.6797 20.68C14.6997 20.886 15.6397 21.386 16.3797 22.12C16.8957 22.606 17.3717 23.134 17.7997 23.7C18.1197 24.1 18.1997 24.26 18.5597 24.72C18.9197 25.18 19.1597 25.64 18.9797 24.96C18.8397 23.96 18.5997 22.28 18.2597 20.78C17.9997 19.64 17.9397 19.46 17.6997 18.6C17.4597 17.74 17.3197 17.02 17.0597 16.04C16.8221 15.0772 16.6352 14.1025 16.4997 13.12C16.2476 11.8635 16.431 10.5585 17.0197 9.42005C17.3615 9.0986 17.7906 8.88533 18.2532 8.80705C18.7158 8.72876 19.1912 8.78895 19.6197 8.98005C20.4997 9.63005 21.1597 10.54 21.4997 11.58C22.0237 12.86 22.3737 14.206 22.5397 15.58C22.8597 17.58 23.4797 20.5 23.4997 21.1C23.4997 20.36 23.3597 18.8 23.4997 18.1C23.568 17.7412 23.7269 17.4057 23.9615 17.1256C24.196 16.8456 24.4984 16.6302 24.8397 16.5C25.4354 16.3173 26.0654 16.2762 26.6797 16.38C27.2997 16.51 27.8497 16.866 28.2197 17.38C28.6837 18.546 28.9397 19.786 28.9797 21.04C29.0333 19.9412 29.2214 18.8531 29.5397 17.8C29.8739 17.3291 30.362 16.9896 30.9197 16.84C31.5797 16.72 32.2597 16.72 32.9197 16.84C33.4617 17.02 33.9357 17.362 34.2797 17.82C34.7037 18.88 34.9597 20 35.0397 21.14C35.0397 21.42 35.1797 20.36 35.6197 19.66C35.7895 19.1561 36.1524 18.7403 36.6288 18.504C37.1051 18.2677 37.6558 18.2303 38.1597 18.4C38.6636 18.5698 39.0795 18.9328 39.3158 19.4091C39.5521 19.8854 39.5895 20.4361 39.4197 20.94V25.46C39.3469 26.6304 39.1864 27.7937 38.9397 28.94C38.5917 29.9543 38.1073 30.9165 37.4997 31.8C36.5287 32.8801 35.7263 34.1005 35.1197 35.42C34.9693 36.0757 34.9021 36.7476 34.9197 37.42C34.9177 38.04 34.9997 38.66 35.1597 39.26C34.342 39.3464 33.5175 39.3464 32.6997 39.26C31.9197 39.14 30.9597 37.58 30.6997 37.1C30.6367 36.9737 30.5396 36.8674 30.4195 36.7931C30.2994 36.7188 30.161 36.6795 30.0197 36.6795C29.8785 36.6795 29.7401 36.7188 29.62 36.7931C29.4998 36.8674 29.4028 36.9737 29.3397 37.1C28.8997 37.86 27.9197 39.24 27.2397 39.32C25.8997 39.48 23.1397 39.32 20.9597 39.32C20.9597 39.32 21.3197 37.32 20.4997 36.6C19.6797 35.88 18.8397 35.04 18.2197 34.48L16.5397 32.56Z" fill="white"/>
<path d="M16.5397 32.56C15.9797 31.84 15.2797 30.38 14.0597 28.56C13.3597 27.56 11.6397 25.66 11.1197 24.68C10.9343 24.3855 10.8119 24.0557 10.7603 23.7115C10.7087 23.3672 10.7289 23.0161 10.8197 22.68C10.9715 22.0558 11.3456 21.5082 11.8721 21.1401C12.3986 20.7719 13.0413 20.6083 13.6797 20.68C14.6997 20.886 15.6397 21.386 16.3797 22.12C16.8957 22.606 17.3717 23.134 17.7997 23.7C18.1197 24.1 18.1997 24.26 18.5597 24.72C18.9197 25.18 19.1597 25.64 18.9797 24.96C18.8397 23.96 18.5997 22.28 18.2597 20.78C17.9997 19.64 17.9397 19.46 17.6997 18.6C17.4597 17.74 17.3197 17.02 17.0597 16.04C16.8221 15.0772 16.6352 14.1025 16.4997 13.12C16.2476 11.8635 16.431 10.5585 17.0197 9.42005C17.3615 9.0986 17.7906 8.88533 18.2532 8.80705C18.7158 8.72876 19.1912 8.78895 19.6197 8.98005C20.4997 9.63005 21.1597 10.54 21.4997 11.58C22.0237 12.86 22.3737 14.206 22.5397 15.58C22.8597 17.58 23.4797 20.5 23.4997 21.1C23.4997 20.36 23.3597 18.8 23.4997 18.1C23.568 17.7412 23.7269 17.4057 23.9615 17.1256C24.196 16.8456 24.4984 16.6302 24.8397 16.5C25.4354 16.3173 26.0654 16.2762 26.6797 16.38C27.2997 16.51 27.8497 16.866 28.2197 17.38C28.6837 18.546 28.9397 19.786 28.9797 21.04C29.0333 19.9412 29.2214 18.8531 29.5397 17.8C29.8739 17.3291 30.362 16.9896 30.9197 16.84C31.5797 16.72 32.2597 16.72 32.9197 16.84C33.4617 17.02 33.9357 17.362 34.2797 17.82C34.7037 18.88 34.9597 20 35.0397 21.14C35.0397 21.42 35.1797 20.36 35.6197 19.66C35.7895 19.1561 36.1524 18.7403 36.6288 18.504C37.1051 18.2677 37.6558 18.2303 38.1597 18.4C38.6636 18.5698 39.0795 18.9328 39.3158 19.4091C39.5521 19.8854 39.5895 20.4361 39.4197 20.94V25.46C39.3469 26.6304 39.1864 27.7937 38.9397 28.94C38.5917 29.9543 38.1073 30.9165 37.4997 31.8C36.5286 32.88 35.7262 34.1004 35.1197 35.42C34.9693 36.0757 34.9021 36.7476 34.9197 37.42C34.9177 38.04 34.9997 38.66 35.1597 39.26C34.342 39.3464 33.5175 39.3464 32.6997 39.26C31.9197 39.14 30.9597 37.58 30.6997 37.1C30.6367 36.9737 30.5396 36.8674 30.4195 36.7931C30.2994 36.7188 30.161 36.6795 30.0197 36.6795C29.8785 36.6795 29.7401 36.7188 29.62 36.7931C29.4998 36.8674 29.4028 36.9737 29.3397 37.1C28.8997 37.86 27.9197 39.24 27.2397 39.32C25.8997 39.48 23.1397 39.32 20.9597 39.32C20.9597 39.32 21.3197 37.32 20.4997 36.6C19.6797 35.88 18.8397 35.04 18.2197 34.48L16.5397 32.56Z" stroke="black" stroke-width="1.5" stroke-linecap="round" stroke-linejoin="round"/>
<path d="M33.4994 33.652V26.748C33.4994 26.5491 33.4203 26.3584 33.2797 26.2177C33.139 26.0771 32.9483 25.998 32.7494 25.998C32.5504 25.998 32.3597 26.0771 32.219 26.2177C32.0784 26.3584 31.9994 26.5491 31.9994 26.748V33.652C31.9994 33.851 32.0784 34.0417 32.219 34.1824C32.3597 34.323 32.5504 34.402 32.7494 34.402C32.9483 34.402 33.139 34.323 33.2797 34.1824C33.4203 34.0417 33.4994 33.851 33.4994 33.652ZM29.5394 33.6501L29.4994 26.742C29.4983 26.5431 29.4183 26.3528 29.2769 26.2129C29.1355 26.073 28.9443 25.995 28.7454 25.996C28.5464 25.9971 28.3561 26.0771 28.2162 26.2185C28.0763 26.3599 27.9983 26.5511 27.9994 26.75L28.0394 33.658C28.0404 33.857 28.1205 34.0473 28.2619 34.1872C28.4033 34.3271 28.5945 34.4051 28.7934 34.404C28.9923 34.403 29.1826 34.323 29.3225 34.1816C29.4624 34.0401 29.5404 33.849 29.5394 33.6501ZM23.9994 26.758L24.0394 33.6501C24.0324 33.7532 24.0468 33.8566 24.0816 33.9539C24.1164 34.0513 24.1709 34.1404 24.2417 34.2157C24.3124 34.291 24.398 34.3509 24.493 34.3917C24.5879 34.4325 24.6903 34.4533 24.7937 34.4527C24.897 34.4521 24.9992 34.4303 25.0937 34.3885C25.1882 34.3467 25.2731 34.2859 25.3431 34.2098C25.4131 34.1337 25.4666 34.0441 25.5004 33.9464C25.5342 33.8487 25.5474 33.7451 25.5394 33.642L25.4994 26.75C25.5063 26.6469 25.492 26.5435 25.4571 26.4461C25.4223 26.3488 25.3678 26.2597 25.2971 26.1844C25.2263 26.1091 25.1407 26.0492 25.0458 26.0084C24.9508 25.9676 24.8484 25.9468 24.7451 25.9474C24.6417 25.9479 24.5396 25.9698 24.445 26.0116C24.3505 26.0534 24.2656 26.1142 24.1956 26.1903C24.1256 26.2663 24.0721 26.356 24.0383 26.4537C24.0046 26.5514 23.9913 26.655 23.9994 26.758Z" fill="black"/>
</g>
<defs>
<filter id="filter0_d_271_50" x="8.18242" y="7.22368" width="33.892" height="35.7176" filterUnits="userSpaceOnUse" color-interpolation-filters="sRGB">
<feFlood flood-opacity="0" result="BackgroundImageFix"/>
<feColorMatrix in="SourceAlpha" type="matrix" values="0 0 0 0 0 0 0 0 0 0 0 0 0 0 0 0 0 0 127 0" result="hardAlpha"/>
<feOffset dy="1"/>
<feGaussianBlur stdDeviation="0.9"/>
<feColorMatrix type="matrix" values="0 0 0 0 0 0 0 0 0 0 0 0 0 0 0 0 0 0 0.65 0"/>
<feBlend mode="normal" in2="BackgroundImageFix" result="effect1_dropShadow_271_50"/>
<feBlend mode="normal" in="SourceGraphic" in2="effect1_dropShadow_271_50" result="shape"/>
</filter>
</defs>
</svg>
