<svg width="80" height="80" viewBox="0 0 80 80" fill="none" xmlns="http://www.w3.org/2000/svg">
<g filter="url(#filter0_d_271_88)">
<path fill-rule="evenodd" clip-rule="evenodd" d="M20.8018 53.853C19.7175 52.4532 18.4001 49.5913 16.0557 46.1168C14.7269 44.1516 11.4317 40.4512 10.4504 38.5717C9.59892 36.9107 9.69055 36.166 9.89293 34.7894C10.2519 32.3407 12.7109 30.4341 15.3341 30.6914C17.3158 30.8824 18.996 32.2199 20.508 33.4832C21.4205 34.2435 22.5433 35.7213 23.219 36.5559C23.8414 37.3202 23.9942 37.6359 24.6586 38.5407C25.5368 39.7377 25.8118 40.3304 25.4758 39.0125C25.2045 37.0783 24.7616 33.7756 24.1202 30.8551C23.6315 28.6404 23.513 28.2932 23.0473 26.5931C22.5546 24.7838 22.3027 23.5167 21.8406 21.5981C21.5199 20.2413 20.9433 17.4688 20.7868 15.909C20.5692 13.7762 20.4545 10.2979 21.7948 8.69917C22.8449 7.4475 25.2543 7.06927 26.7472 7.84133C28.7023 8.85124 29.8133 11.7524 30.3212 12.9103C31.2338 14.9926 31.7989 17.3985 32.2916 20.5569C32.9177 24.5771 34.0709 30.1569 34.1089 31.3306C34.2006 29.8917 33.8494 26.862 34.0937 25.4817C34.3152 24.23 35.3462 22.7757 36.6367 22.3818C37.7288 22.0503 39.0081 21.9295 40.1343 22.1673C41.3296 22.4168 42.5895 23.2903 43.0592 24.1131C44.4414 26.5463 44.4682 31.5178 44.5255 31.2527C44.8539 29.7864 44.7965 26.4605 45.6098 25.0761C46.1444 24.1637 47.5076 23.341 48.233 23.2084C49.3558 23.0056 50.7341 22.9433 51.914 23.1771C52.8648 23.3682 54.1515 24.5224 54.499 25.0761C55.3314 26.4175 55.8049 30.2116 55.9462 31.5412C56.0034 32.091 56.2287 30.0127 57.065 28.6713C58.6153 26.1797 64.1021 25.6962 64.3122 31.163C64.4077 33.7131 64.3885 33.5961 64.3885 35.3118C64.3885 37.3277 64.3427 38.5405 64.2358 39.9987C64.1175 41.5585 63.7891 45.0834 63.3119 46.7913C62.9835 47.965 61.8951 50.6049 60.8223 52.1879C60.8223 52.1879 56.7212 57.062 56.2746 59.2573C55.8241 61.4488 55.9729 61.4644 55.8851 63.0201C55.7973 64.5721 56.3472 66.6153 56.3472 66.6153C56.3472 66.6153 53.2847 67.0209 51.6352 66.7518C50.1423 66.5061 48.2941 63.4724 47.8168 62.5444C47.1601 61.2655 45.7589 61.5111 45.2127 62.4547C44.3536 63.9481 42.5056 66.627 41.1997 66.7946C38.649 67.1223 33.3567 66.9156 29.2139 66.8726C29.2139 66.8726 29.9202 62.9304 28.3472 61.5775C27.1825 60.5675 25.1778 58.5204 23.979 57.4441L20.8018 53.853Z" fill="#0000FF"/>
<path fill-rule="evenodd" clip-rule="evenodd" d="M20.8018 53.853C19.7175 52.4532 18.4001 49.5913 16.0557 46.1168C14.7269 44.1516 11.4317 40.4512 10.4504 38.5717C9.59892 36.9107 9.69055 36.166 9.89293 34.7894C10.2519 32.3407 12.7109 30.4341 15.3341 30.6914C17.3158 30.8824 18.996 32.2199 20.508 33.4832C21.4205 34.2435 22.5433 35.7213 23.219 36.5559C23.8414 37.3202 23.9942 37.6359 24.6586 38.5407C25.5368 39.7377 25.8118 40.3304 25.4758 39.0125C25.2045 37.0783 24.7616 33.7756 24.1202 30.8551C23.6315 28.6404 23.513 28.2932 23.0473 26.5931C22.5546 24.7838 22.3027 23.5167 21.8406 21.5981C21.5199 20.2413 20.9433 17.4688 20.7868 15.909C20.5692 13.7762 20.4545 10.2979 21.7948 8.69917C22.8449 7.4475 25.2543 7.06927 26.7472 7.84133C28.7023 8.85124 29.8133 11.7524 30.3212 12.9103C31.2338 14.9926 31.7989 17.3985 32.2916 20.5569C32.9177 24.5771 34.0709 30.1569 34.1089 31.3306C34.2006 29.8917 33.8494 26.862 34.0937 25.4817C34.3152 24.23 35.3462 22.7757 36.6367 22.3818C37.7288 22.0503 39.0081 21.9295 40.1343 22.1673C41.3296 22.4168 42.5895 23.2903 43.0592 24.1131C44.4414 26.5463 44.4682 31.5178 44.5255 31.2527C44.8539 29.7864 44.7965 26.4605 45.6098 25.0761C46.1444 24.1637 47.5076 23.341 48.233 23.2084C49.3558 23.0056 50.7341 22.9433 51.914 23.1771C52.8648 23.3682 54.1515 24.5224 54.499 25.0761C55.3314 26.4175 55.8049 30.2116 55.9462 31.5412C56.0034 32.091 56.2287 30.0127 57.065 28.6713C58.6153 26.1797 64.1021 25.6962 64.3122 31.163C64.4077 33.7131 64.3885 33.5961 64.3885 35.3118C64.3885 37.3277 64.3427 38.5405 64.2358 39.9987C64.1175 41.5585 63.7891 45.0834 63.3119 46.7913C62.9835 47.965 61.8951 50.6049 60.8223 52.1879C60.8223 52.1879 56.7212 57.062 56.2746 59.2573C55.8241 61.4488 55.9729 61.4644 55.8851 63.0201C55.7973 64.5721 56.3472 66.6153 56.3472 66.6153C56.3472 66.6153 53.2847 67.0209 51.6352 66.7518C50.1423 66.5061 48.2941 63.4724 47.8168 62.5444C47.1601 61.2655 45.7589 61.5111 45.2127 62.4547C44.3536 63.9481 42.5056 66.627 41.1997 66.7946C38.649 67.1223 33.3567 66.9156 29.2139 66.8726C29.2139 66.8726 29.9202 62.9304 28.3472 61.5775C27.1825 60.5675 25.1778 58.5204 23.979 57.4441L20.8018 53.853Z" stroke="white" stroke-width="1.5" stroke-linecap="round" stroke-linejoin="round"/>
</g>
<path fill-rule="evenodd" clip-rule="evenodd" d="M37.0733 42.7906C37.0733 41.7631 36.1998 40.9302 35.1221 40.9302C34.0445 40.9302 33.1709 41.7631 33.1709 42.7906V53.9534C33.1709 54.981 34.0445 55.8139 35.1221 55.8139C36.1998 55.8139 37.0733 54.981 37.0733 53.9534V42.7906ZM42.927 40.9302C44.0047 40.9302 44.8782 41.7631 44.8782 42.7906V53.9534C44.8782 54.981 44.0047 55.8139 42.927 55.8139C41.8493 55.8139 40.9758 54.981 40.9758 53.9534V42.7906C40.9758 41.7631 41.8493 40.9302 42.927 40.9302ZM50.7319 40.9302C51.8095 40.9302 52.6831 41.7631 52.6831 42.7906V53.9534C52.6831 54.981 51.8095 55.8139 50.7319 55.8139C49.6542 55.8139 48.7807 54.981 48.7807 53.9534V42.7906C48.7807 41.7631 49.6542 40.9302 50.7319 40.9302Z" fill="white"/>
<defs>
<filter id="filter0_d_271_88" x="5.00586" y="4.69165" width="64.1338" height="69.0348" filterUnits="userSpaceOnUse" color-interpolation-filters="sRGB">
<feFlood flood-opacity="0" result="BackgroundImageFix"/>
<feColorMatrix in="SourceAlpha" type="matrix" values="0 0 0 0 0 0 0 0 0 0 0 0 0 0 0 0 0 0 127 0" result="hardAlpha"/>
<feOffset dy="2"/>
<feGaussianBlur stdDeviation="2"/>
<feColorMatrix type="matrix" values="0 0 0 0 0 0 0 0 0 0 0 0 0 0 0 0 0 0 0.24 0"/>
<feBlend mode="normal" in2="BackgroundImageFix" result="effect1_dropShadow_271_88"/>
<feBlend mode="normal" in="SourceGraphic" in2="effect1_dropShadow_271_88" result="shape"/>
</filter>
</defs>
</svg>
